# Blender 5.1.2
# www.blender.org
mtllib UVSphere.mtl
o Sphere
v 0.000000 1.000000 0.000000
v 0.000000 0.831470 -0.555570
v 0.000000 0.555570 -0.831470
v 0.000000 0.195090 -0.980785
v 0.000000 0.000000 -1.000000
v 0.000000 -0.195090 -0.980785
v 0.000000 -0.555570 -0.831470
v 0.000000 -1.000000 0.000000
v 0.038060 0.980785 -0.191342
v 0.074658 0.923880 -0.375330
v 0.108386 0.831470 -0.544895
v 0.137950 0.707107 -0.693520
v 0.162212 0.555570 -0.815493
v 0.180240 0.382683 -0.906127
v 0.191342 0.195090 -0.961940
v 0.195090 0.000000 -0.980785
v 0.191342 -0.195090 -0.961940
v 0.180240 -0.382683 -0.906127
v 0.162212 -0.555570 -0.815493
v 0.137950 -0.707107 -0.693520
v 0.108386 -0.831470 -0.544895
v 0.074658 -0.923880 -0.375330
v 0.038060 -0.980785 -0.191342
v 0.074658 0.980785 -0.180240
v 0.146447 0.923880 -0.353553
v 0.212608 0.831470 -0.513280
v 0.270598 0.707107 -0.653281
v 0.318190 0.555570 -0.768178
v 0.353553 0.382683 -0.853553
v 0.375330 0.195090 -0.906127
v 0.382683 0.000000 -0.923879
v 0.375330 -0.195090 -0.906127
v 0.353553 -0.382683 -0.853553
v 0.318190 -0.555570 -0.768178
v 0.270598 -0.707107 -0.653281
v 0.212608 -0.831470 -0.513280
v 0.146447 -0.923880 -0.353553
v 0.074658 -0.980785 -0.180240
v 0.108386 0.980785 -0.162212
v 0.212608 0.923880 -0.318190
v 0.308658 0.831470 -0.461940
v 0.392847 0.707107 -0.587938
v 0.461940 0.555570 -0.691342
v 0.513280 0.382683 -0.768178
v 0.544895 0.195090 -0.815493
v 0.555570 0.000000 -0.831469
v 0.544895 -0.195090 -0.815493
v 0.513280 -0.382683 -0.768178
v 0.461940 -0.555570 -0.691342
v 0.392847 -0.707107 -0.587938
v 0.308658 -0.831470 -0.461940
v 0.212608 -0.923880 -0.318190
v 0.108386 -0.980785 -0.162212
v 0.137950 0.980785 -0.137950
v 0.270598 0.923880 -0.270598
v 0.392847 0.831470 -0.392847
v 0.500000 0.707107 -0.500000
v 0.587938 0.555570 -0.587938
v 0.653281 0.382683 -0.653281
v 0.693520 0.195090 -0.693520
v 0.707107 0.000000 -0.707107
v 0.693520 -0.195090 -0.693520
v 0.653281 -0.382683 -0.653281
v 0.587938 -0.555570 -0.587938
v 0.500000 -0.707107 -0.500000
v 0.392847 -0.831470 -0.392847
v 0.270598 -0.923880 -0.270598
v 0.137950 -0.980785 -0.137950
v 0.162212 0.980785 -0.108386
v 0.318190 0.923880 -0.212608
v 0.461940 0.831470 -0.308658
v 0.587938 0.707107 -0.392847
v 0.691342 0.555570 -0.461940
v 0.768178 0.382683 -0.513280
v 0.815493 0.195090 -0.544895
v 0.831470 0.000000 -0.555570
v 0.815493 -0.195090 -0.544895
v 0.768178 -0.382683 -0.513280
v 0.691342 -0.555570 -0.461940
v 0.587938 -0.707107 -0.392847
v 0.461940 -0.831470 -0.308658
v 0.318190 -0.923880 -0.212608
v 0.162212 -0.980785 -0.108386
v 0.180240 0.980785 -0.074658
v 0.353553 0.923880 -0.146447
v 0.513280 0.831470 -0.212607
v 0.653281 0.707107 -0.270598
v 0.768178 0.555570 -0.318190
v 0.853553 0.382683 -0.353553
v 0.906127 0.195090 -0.375330
v 0.923879 0.000000 -0.382683
v 0.906127 -0.195090 -0.375330
v 0.853553 -0.382683 -0.353553
v 0.768178 -0.555570 -0.318190
v 0.653281 -0.707107 -0.270598
v 0.513280 -0.831470 -0.212607
v 0.353553 -0.923880 -0.146447
v 0.180240 -0.980785 -0.074658
v 0.191342 0.980785 -0.038060
v 0.375330 0.923880 -0.074658
v 0.544895 0.831470 -0.108386
v 0.693520 0.707107 -0.137950
v 0.815493 0.555570 -0.162212
v 0.906127 0.382683 -0.180240
v 0.961940 0.195090 -0.191342
v 0.980785 0.000000 -0.195090
v 0.961940 -0.195090 -0.191342
v 0.906127 -0.382683 -0.180240
v 0.815493 -0.555570 -0.162212
v 0.693520 -0.707107 -0.137950
v 0.544895 -0.831470 -0.108386
v 0.375330 -0.923880 -0.074658
v 0.191342 -0.980785 -0.038060
v 0.195090 0.980785 0.000000
v 0.382683 0.923880 0.000000
v 0.555570 0.831470 0.000000
v 0.707107 0.707107 -0.000000
v 0.831469 0.555570 0.000000
v 0.923879 0.382683 -0.000000
v 0.980785 0.195090 0.000000
v 1.000000 0.000000 0.000000
v 0.980785 -0.195090 0.000000
v 0.923879 -0.382683 -0.000000
v 0.831469 -0.555570 0.000000
v 0.707107 -0.707107 -0.000000
v 0.555570 -0.831470 0.000000
v 0.382683 -0.923880 0.000000
v 0.195090 -0.980785 0.000000
v 0.191342 0.980785 0.038060
v 0.375330 0.923880 0.074658
v 0.544895 0.831470 0.108386
v 0.693520 0.707107 0.137950
v 0.815493 0.555570 0.162212
v 0.906127 0.382683 0.180240
v 0.961940 0.195090 0.191342
v 0.980785 0.000000 0.195090
v 0.961940 -0.195090 0.191342
v 0.906127 -0.382683 0.180240
v 0.815493 -0.555570 0.162212
v 0.693520 -0.707107 0.137950
v 0.544895 -0.831470 0.108386
v 0.375330 -0.923880 0.074658
v 0.191342 -0.980785 0.038060
v 0.180240 0.980785 0.074658
v 0.353553 0.923880 0.146447
v 0.513280 0.831470 0.212608
v 0.653281 0.707107 0.270598
v 0.768178 0.555570 0.318190
v 0.853553 0.382683 0.353553
v 0.906127 0.195090 0.375330
v 0.923879 0.000000 0.382683
v 0.906127 -0.195090 0.375330
v 0.853553 -0.382683 0.353553
v 0.768178 -0.555570 0.318190
v 0.653281 -0.707107 0.270598
v 0.513280 -0.831470 0.212608
v 0.353553 -0.923880 0.146447
v 0.180240 -0.980785 0.074658
v 0.162212 0.980785 0.108386
v 0.318190 0.923880 0.212608
v 0.461940 0.831470 0.308658
v 0.587938 0.707107 0.392847
v 0.691341 0.555570 0.461940
v 0.768178 0.382683 0.513280
v 0.815493 0.195090 0.544895
v 0.831469 0.000000 0.555570
v 0.815493 -0.195090 0.544895
v 0.768178 -0.382683 0.513280
v 0.691341 -0.555570 0.461940
v 0.587938 -0.707107 0.392847
v 0.461940 -0.831470 0.308658
v 0.318190 -0.923880 0.212608
v 0.162212 -0.980785 0.108386
v 0.137950 0.980785 0.137950
v 0.270598 0.923880 0.270598
v 0.392847 0.831470 0.392847
v 0.500000 0.707107 0.500000
v 0.587938 0.555570 0.587938
v 0.653281 0.382683 0.653281
v 0.693520 0.195090 0.693520
v 0.707106 0.000000 0.707107
v 0.693520 -0.195090 0.693520
v 0.653281 -0.382683 0.653281
v 0.587938 -0.555570 0.587938
v 0.500000 -0.707107 0.500000
v 0.392847 -0.831470 0.392847
v 0.270598 -0.923880 0.270598
v 0.137950 -0.980785 0.137950
v 0.108386 0.980785 0.162212
v 0.212607 0.923880 0.318190
v 0.308658 0.831470 0.461940
v 0.392847 0.707107 0.587938
v 0.461940 0.555570 0.691342
v 0.513280 0.382683 0.768178
v 0.544895 0.195090 0.815493
v 0.555570 0.000000 0.831469
v 0.544895 -0.195090 0.815493
v 0.513280 -0.382683 0.768178
v 0.461940 -0.555570 0.691342
v 0.392847 -0.707107 0.587938
v 0.308658 -0.831470 0.461940
v 0.212607 -0.923880 0.318190
v 0.108386 -0.980785 0.162212
v 0.074658 0.980785 0.180240
v 0.146447 0.923880 0.353553
v 0.212607 0.831470 0.513280
v 0.270598 0.707107 0.653281
v 0.318189 0.555570 0.768178
v 0.353553 0.382683 0.853553
v 0.375330 0.195090 0.906127
v 0.382683 0.000000 0.923879
v 0.375330 -0.195090 0.906127
v 0.353553 -0.382683 0.853553
v 0.318189 -0.555570 0.768178
v 0.270598 -0.707107 0.653281
v 0.212607 -0.831470 0.513280
v 0.146447 -0.923880 0.353553
v 0.074658 -0.980785 0.180240
v 0.038060 0.980785 0.191342
v 0.074658 0.923880 0.375330
v 0.108386 0.831470 0.544895
v 0.137950 0.707107 0.693520
v 0.162212 0.555570 0.815493
v 0.180240 0.382683 0.906127
v 0.191342 0.195090 0.961939
v 0.195090 0.000000 0.980785
v 0.191342 -0.195090 0.961939
v 0.180240 -0.382683 0.906127
v 0.162212 -0.555570 0.815493
v 0.137950 -0.707107 0.693520
v 0.108386 -0.831470 0.544895
v 0.074658 -0.923880 0.375330
v 0.038060 -0.980785 0.191342
v -0.000000 0.980785 0.195090
v -0.000000 0.923880 0.382683
v -0.000000 0.831470 0.555570
v -0.000000 0.707107 0.707107
v -0.000000 0.555570 0.831469
v 0.000000 0.382683 0.923879
v -0.000000 0.195090 0.980785
v -0.000000 0.000000 0.999999
v -0.000000 -0.195090 0.980785
v 0.000000 -0.382683 0.923879
v -0.000000 -0.555570 0.831469
v -0.000000 -0.707107 0.707107
v -0.000000 -0.831470 0.555570
v -0.000000 -0.923880 0.382683
v -0.000000 -0.980785 0.195090
v -0.038060 0.980785 0.191342
v -0.074658 0.923880 0.375330
v -0.108386 0.831470 0.544895
v -0.137950 0.707107 0.693520
v -0.162212 0.555570 0.815493
v -0.180240 0.382683 0.906127
v -0.191342 0.195090 0.961939
v -0.195091 0.000000 0.980785
v -0.191342 -0.195090 0.961939
v -0.180240 -0.382683 0.906127
v -0.162212 -0.555570 0.815493
v -0.137950 -0.707107 0.693520
v -0.108386 -0.831470 0.544895
v -0.074658 -0.923880 0.375330
v -0.038060 -0.980785 0.191342
v -0.074658 0.980785 0.180240
v -0.146447 0.923880 0.353553
v -0.212608 0.831470 0.513280
v -0.270598 0.707107 0.653281
v -0.318190 0.555570 0.768177
v -0.353553 0.382683 0.853553
v -0.375330 0.195090 0.906127
v -0.382683 0.000000 0.923879
v -0.375330 -0.195090 0.906127
v -0.353553 -0.382683 0.853553
v -0.318190 -0.555570 0.768177
v -0.270598 -0.707107 0.653281
v -0.212608 -0.831470 0.513280
v -0.146447 -0.923880 0.353553
v -0.074658 -0.980785 0.180240
v -0.108386 0.980785 0.162212
v -0.212608 0.923880 0.318190
v -0.308658 0.831470 0.461939
v -0.392847 0.707107 0.587938
v -0.461940 0.555570 0.691341
v -0.513280 0.382683 0.768178
v -0.544895 0.195090 0.815493
v -0.555570 0.000000 0.831469
v -0.544895 -0.195090 0.815493
v -0.513280 -0.382683 0.768178
v -0.461940 -0.555570 0.691341
v -0.392847 -0.707107 0.587938
v -0.308658 -0.831470 0.461939
v -0.212608 -0.923880 0.318190
v -0.108386 -0.980785 0.162212
v -0.137950 0.980785 0.137950
v -0.270598 0.923880 0.270598
v -0.392847 0.831470 0.392847
v -0.500000 0.707107 0.500000
v -0.587938 0.555570 0.587937
v -0.653281 0.382683 0.653281
v -0.693520 0.195090 0.693520
v -0.707106 0.000000 0.707106
v -0.693520 -0.195090 0.693520
v -0.653281 -0.382683 0.653281
v -0.587938 -0.555570 0.587937
v -0.500000 -0.707107 0.500000
v -0.392847 -0.831470 0.392847
v -0.270598 -0.923880 0.270598
v -0.137950 -0.980785 0.137950
v -0.162212 0.980785 0.108386
v -0.318190 0.923880 0.212607
v -0.461940 0.831470 0.308658
v -0.587938 0.707107 0.392847
v -0.691341 0.555570 0.461939
v -0.768177 0.382683 0.513280
v -0.815493 0.195090 0.544895
v -0.831469 0.000000 0.555569
v -0.815493 -0.195090 0.544895
v -0.768177 -0.382683 0.513280
v -0.691341 -0.555570 0.461939
v -0.587938 -0.707107 0.392847
v -0.461940 -0.831470 0.308658
v -0.318190 -0.923880 0.212607
v -0.162212 -0.980785 0.108386
v -0.180240 0.980785 0.074658
v -0.353553 0.923880 0.146447
v -0.513280 0.831470 0.212607
v -0.653281 0.707107 0.270598
v -0.768177 0.555570 0.318189
v -0.853553 0.382683 0.353553
v -0.906127 0.195090 0.375330
v -0.923879 0.000000 0.382683
v -0.906127 -0.195090 0.375330
v -0.853553 -0.382683 0.353553
v -0.768177 -0.555570 0.318189
v -0.653281 -0.707107 0.270598
v -0.513280 -0.831470 0.212607
v -0.353553 -0.923880 0.146447
v -0.180240 -0.980785 0.074658
v -0.191342 0.980785 0.038060
v -0.375330 0.923880 0.074658
v -0.544895 0.831470 0.108386
v -0.693520 0.707107 0.137950
v -0.815493 0.555570 0.162211
v -0.906127 0.382683 0.180240
v -0.961939 0.195090 0.191341
v -0.980784 0.000000 0.195090
v -0.961939 -0.195090 0.191341
v -0.906127 -0.382683 0.180240
v -0.815493 -0.555570 0.162211
v -0.693520 -0.707107 0.137950
v -0.544895 -0.831470 0.108386
v -0.375330 -0.923880 0.074658
v -0.191342 -0.980785 0.038060
v -0.195090 0.980785 -0.000000
v -0.382683 0.923880 -0.000000
v -0.555570 0.831470 -0.000000
v -0.707107 0.707107 -0.000000
v -0.831469 0.555570 -0.000000
v -0.923879 0.382683 -0.000000
v -0.980785 0.195090 -0.000000
v -0.999999 0.000000 -0.000000
v -0.980785 -0.195090 -0.000000
v -0.923879 -0.382683 -0.000000
v -0.831469 -0.555570 -0.000000
v -0.707107 -0.707107 -0.000000
v -0.555570 -0.831470 -0.000000
v -0.382683 -0.923880 -0.000000
v -0.195090 -0.980785 -0.000000
v -0.191342 0.980785 -0.038060
v -0.375330 0.923880 -0.074658
v -0.544895 0.831470 -0.108386
v -0.693520 0.707107 -0.137950
v -0.815493 0.555570 -0.162212
v -0.906127 0.382683 -0.180240
v -0.961939 0.195090 -0.191342
v -0.980784 0.000000 -0.195091
v -0.961939 -0.195090 -0.191342
v -0.906127 -0.382683 -0.180240
v -0.815493 -0.555570 -0.162212
v -0.693520 -0.707107 -0.137950
v -0.544895 -0.831470 -0.108386
v -0.375330 -0.923880 -0.074658
v -0.191342 -0.980785 -0.038060
v -0.180240 0.980785 -0.074658
v -0.353553 0.923880 -0.146447
v -0.513279 0.831470 -0.212607
v -0.653281 0.707107 -0.270598
v -0.768177 0.555570 -0.318190
v -0.853553 0.382683 -0.353553
v -0.906127 0.195090 -0.375330
v -0.923878 0.000000 -0.382683
v -0.906127 -0.195090 -0.375330
v -0.853553 -0.382683 -0.353553
v -0.768177 -0.555570 -0.318190
v -0.653281 -0.707107 -0.270598
v -0.513279 -0.831470 -0.212607
v -0.353553 -0.923880 -0.146447
v -0.180240 -0.980785 -0.074658
v -0.162212 0.980785 -0.108386
v -0.318189 0.923880 -0.212607
v -0.461939 0.831470 -0.308658
v -0.587938 0.707107 -0.392847
v -0.691341 0.555570 -0.461940
v -0.768177 0.382683 -0.513280
v -0.815493 0.195090 -0.544895
v -0.831468 0.000000 -0.555570
v -0.815493 -0.195090 -0.544895
v -0.768177 -0.382683 -0.513280
v -0.691341 -0.555570 -0.461940
v -0.587938 -0.707107 -0.392847
v -0.461939 -0.831470 -0.308658
v -0.318189 -0.923880 -0.212607
v -0.162212 -0.980785 -0.108386
v -0.137950 0.980785 -0.137950
v -0.270598 0.923880 -0.270598
v -0.392847 0.831470 -0.392847
v -0.500000 0.707107 -0.500000
v -0.587937 0.555570 -0.587938
v -0.653281 0.382683 -0.653281
v -0.693519 0.195090 -0.693520
v -0.707106 0.000000 -0.707106
v -0.693519 -0.195090 -0.693520
v -0.653281 -0.382683 -0.653281
v -0.587937 -0.555570 -0.587938
v -0.500000 -0.707107 -0.500000
v -0.392847 -0.831470 -0.392847
v -0.270598 -0.923880 -0.270598
v -0.137950 -0.980785 -0.137950
v -0.108386 0.980785 -0.162212
v -0.212607 0.923880 -0.318190
v -0.308658 0.831470 -0.461939
v -0.392847 0.707107 -0.587938
v -0.461939 0.555570 -0.691341
v -0.513280 0.382683 -0.768177
v -0.544895 0.195090 -0.815493
v -0.555569 0.000000 -0.831469
v -0.544895 -0.195090 -0.815493
v -0.513280 -0.382683 -0.768177
v -0.461939 -0.555570 -0.691341
v -0.392847 -0.707107 -0.587938
v -0.308658 -0.831470 -0.461939
v -0.212607 -0.923880 -0.318190
v -0.108386 -0.980785 -0.162212
v -0.074658 0.980785 -0.180240
v -0.146446 0.923880 -0.353553
v -0.212607 0.831470 -0.513279
v -0.270598 0.707107 -0.653281
v -0.318189 0.555570 -0.768177
v -0.353553 0.382683 -0.853553
v -0.375330 0.195090 -0.906127
v -0.382683 0.000000 -0.923879
v -0.375330 -0.195090 -0.906127
v -0.353553 -0.382683 -0.853553
v -0.318189 -0.555570 -0.768177
v -0.270598 -0.707107 -0.653281
v -0.212607 -0.831470 -0.513279
v -0.146446 -0.923880 -0.353553
v -0.074658 -0.980785 -0.180240
v -0.038060 0.980785 -0.191342
v -0.074658 0.923880 -0.375330
v -0.108386 0.831470 -0.544895
v -0.137950 0.707107 -0.693520
v -0.162211 0.555570 -0.815493
v -0.180240 0.382683 -0.906127
v -0.191341 0.195090 -0.961939
v -0.195090 0.000000 -0.980784
v -0.191341 -0.195090 -0.961939
v -0.180240 -0.382683 -0.906127
v -0.162211 -0.555570 -0.815493
v -0.137950 -0.707107 -0.693520
v -0.108386 -0.831470 -0.544895
v -0.074658 -0.923880 -0.375330
v -0.038060 -0.980785 -0.191342
v 0.000000 0.980785 -0.195090
v 0.000000 0.923880 -0.382683
v 0.000000 0.707107 -0.707107
v 0.000000 0.382683 -0.923879
v 0.000000 -0.382683 -0.923879
v 0.000000 -0.707107 -0.707107
v 0.000000 -0.831470 -0.555570
v 0.000000 -0.923880 -0.382683
v 0.000000 -0.980785 -0.195090
vn 0.0624 0.7715 -0.6332
vn 0.0759 -0.6326 -0.7708
vn 0.0759 0.6326 -0.7708
vn 0.0624 -0.7715 -0.6332
vn 0.0865 0.4696 -0.8786
vn 0.0464 -0.8810 -0.4709
vn 0.0938 0.2890 -0.9527
vn 0.0286 -0.9565 -0.2902
vn 0.0975 0.0975 -0.9904
vn 0.0097 0.9951 -0.0980
vn 0.0097 -0.9951 -0.0980
vn 0.0975 -0.0976 -0.9904
vn 0.0286 0.9565 -0.2902
vn 0.0938 -0.2890 -0.9527
vn 0.0464 0.8810 -0.4709
vn 0.0865 -0.4696 -0.8786
vn 0.1374 0.8810 -0.4528
vn 0.2563 -0.4696 -0.8448
vn 0.1847 0.7715 -0.6088
vn 0.2248 -0.6326 -0.7412
vn 0.2248 0.6326 -0.7412
vn 0.1847 -0.7715 -0.6088
vn 0.2563 0.4696 -0.8448
vn 0.1374 -0.8810 -0.4528
vn 0.2779 0.2890 -0.9161
vn 0.0846 -0.9565 -0.2790
vn 0.2889 0.0976 -0.9524
vn 0.0286 0.9951 -0.0942
vn 0.0286 -0.9951 -0.0942
vn 0.2889 -0.0976 -0.9524
vn 0.0846 0.9565 -0.2790
vn 0.2779 -0.2890 -0.9161
vn 0.4513 0.2890 -0.8443
vn 0.1374 -0.9565 -0.2571
vn 0.4691 0.0975 -0.8777
vn 0.0464 0.9951 -0.0869
vn 0.0464 -0.9951 -0.0869
vn 0.4691 -0.0975 -0.8777
vn 0.1374 0.9565 -0.2571
vn 0.4513 -0.2890 -0.8443
vn 0.2231 0.8810 -0.4173
vn 0.4162 -0.4696 -0.7786
vn 0.2999 0.7715 -0.5611
vn 0.3651 -0.6326 -0.6831
vn 0.3651 0.6326 -0.6831
vn 0.2999 -0.7715 -0.5611
vn 0.4162 0.4696 -0.7786
vn 0.2230 -0.8810 -0.4173
vn 0.5601 -0.4696 -0.6825
vn 0.4036 0.7715 -0.4918
vn 0.4913 -0.6326 -0.5987
vn 0.4913 0.6326 -0.5987
vn 0.4036 -0.7715 -0.4918
vn 0.5601 0.4696 -0.6825
vn 0.3002 -0.8810 -0.3658
vn 0.6073 0.2890 -0.7400
vn 0.1850 -0.9565 -0.2254
vn 0.6314 0.0975 -0.7693
vn 0.0625 0.9951 -0.0761
vn 0.0625 -0.9951 -0.0761
vn 0.6314 -0.0975 -0.7693
vn 0.1850 0.9565 -0.2254
vn 0.6073 -0.2890 -0.7400
vn 0.3002 0.8810 -0.3658
vn 0.2254 -0.9566 -0.1850
vn 0.7693 0.0975 -0.6314
vn 0.0761 0.9951 -0.0625
vn 0.0761 -0.9951 -0.0625
vn 0.7693 -0.0975 -0.6314
vn 0.2254 0.9565 -0.1850
vn 0.7400 -0.2890 -0.6073
vn 0.3658 0.8810 -0.3002
vn 0.6825 -0.4696 -0.5601
vn 0.4918 0.7715 -0.4036
vn 0.5987 -0.6326 -0.4913
vn 0.5987 0.6326 -0.4913
vn 0.4918 -0.7715 -0.4036
vn 0.6825 0.4696 -0.5601
vn 0.3658 -0.8810 -0.3002
vn 0.7400 0.2890 -0.6073
vn 0.5611 0.7715 -0.2999
vn 0.6831 -0.6326 -0.3651
vn 0.6831 0.6326 -0.3651
vn 0.5611 -0.7715 -0.2999
vn 0.7786 0.4696 -0.4162
vn 0.4173 -0.8810 -0.2230
vn 0.8443 0.2890 -0.4513
vn 0.2571 -0.9565 -0.1374
vn 0.8777 0.0975 -0.4691
vn 0.0869 0.9951 -0.0464
vn 0.0869 -0.9951 -0.0464
vn 0.8777 -0.0975 -0.4691
vn 0.2571 0.9565 -0.1374
vn 0.8443 -0.2890 -0.4513
vn 0.4173 0.8810 -0.2230
vn 0.7786 -0.4696 -0.4162
vn 0.9524 0.0975 -0.2889
vn 0.0942 0.9951 -0.0286
vn 0.0942 -0.9951 -0.0286
vn 0.9524 -0.0975 -0.2889
vn 0.2790 0.9565 -0.0846
vn 0.9161 -0.2890 -0.2779
vn 0.4528 0.8810 -0.1374
vn 0.8448 -0.4696 -0.2563
vn 0.6088 0.7715 -0.1847
vn 0.7412 -0.6326 -0.2248
vn 0.7412 0.6326 -0.2248
vn 0.6088 -0.7715 -0.1847
vn 0.8448 0.4696 -0.2563
vn 0.4528 -0.8810 -0.1374
vn 0.9161 0.2890 -0.2779
vn 0.2790 -0.9565 -0.0846
vn 0.7708 -0.6326 -0.0759
vn 0.7708 0.6326 -0.0759
vn 0.6332 -0.7715 -0.0624
vn 0.8786 0.4696 -0.0865
vn 0.4709 -0.8810 -0.0464
vn 0.9527 0.2890 -0.0938
vn 0.2902 -0.9565 -0.0286
vn 0.9904 0.0975 -0.0975
vn 0.0980 0.9951 -0.0097
vn 0.0980 -0.9951 -0.0097
vn 0.9904 -0.0975 -0.0975
vn 0.2902 0.9565 -0.0286
vn 0.9527 -0.2890 -0.0938
vn 0.4709 0.8810 -0.0464
vn 0.8786 -0.4696 -0.0865
vn 0.6332 0.7715 -0.0624
vn 0.0980 -0.9951 0.0097
vn 0.9904 -0.0975 0.0976
vn 0.2902 0.9565 0.0286
vn 0.9527 -0.2890 0.0938
vn 0.4709 0.8810 0.0464
vn 0.8786 -0.4696 0.0865
vn 0.6332 0.7715 0.0624
vn 0.7708 -0.6326 0.0759
vn 0.7708 0.6326 0.0759
vn 0.6332 -0.7715 0.0624
vn 0.8786 0.4696 0.0865
vn 0.4709 -0.8810 0.0464
vn 0.9527 0.2890 0.0938
vn 0.2902 -0.9565 0.0286
vn 0.9904 0.0975 0.0976
vn 0.0980 0.9951 0.0097
vn 0.6088 -0.7715 0.1847
vn 0.8448 0.4696 0.2563
vn 0.4528 -0.8810 0.1374
vn 0.9161 0.2890 0.2779
vn 0.2790 -0.9565 0.0846
vn 0.9524 0.0975 0.2889
vn 0.0942 0.9951 0.0286
vn 0.0942 -0.9951 0.0286
vn 0.9524 -0.0975 0.2889
vn 0.2790 0.9565 0.0846
vn 0.9161 -0.2890 0.2779
vn 0.4528 0.8810 0.1374
vn 0.8448 -0.4696 0.2563
vn 0.6088 0.7715 0.1847
vn 0.7412 -0.6326 0.2248
vn 0.7412 0.6326 0.2248
vn 0.2571 0.9565 0.1374
vn 0.8443 -0.2890 0.4513
vn 0.4173 0.8810 0.2231
vn 0.7786 -0.4696 0.4162
vn 0.5611 0.7715 0.2999
vn 0.6831 -0.6326 0.3651
vn 0.6831 0.6326 0.3651
vn 0.5611 -0.7715 0.2999
vn 0.7786 0.4696 0.4162
vn 0.4173 -0.8810 0.2230
vn 0.8443 0.2890 0.4513
vn 0.2571 -0.9565 0.1374
vn 0.8777 0.0975 0.4691
vn 0.0869 0.9951 0.0464
vn 0.0869 -0.9951 0.0464
vn 0.8777 -0.0975 0.4691
vn 0.6825 0.4696 0.5601
vn 0.3658 -0.8810 0.3002
vn 0.7400 0.2890 0.6073
vn 0.2254 -0.9565 0.1850
vn 0.7693 0.0975 0.6314
vn 0.0761 0.9951 0.0625
vn 0.0761 -0.9951 0.0625
vn 0.7693 -0.0975 0.6314
vn 0.2254 0.9565 0.1850
vn 0.7400 -0.2890 0.6073
vn 0.3658 0.8810 0.3002
vn 0.6825 -0.4696 0.5601
vn 0.4918 0.7715 0.4036
vn 0.5987 -0.6326 0.4913
vn 0.5987 0.6326 0.4913
vn 0.4918 -0.7715 0.4036
vn 0.6073 -0.2890 0.7400
vn 0.3002 0.8810 0.3658
vn 0.5601 -0.4696 0.6825
vn 0.4036 0.7715 0.4918
vn 0.4913 -0.6326 0.5987
vn 0.4913 0.6326 0.5987
vn 0.4036 -0.7715 0.4918
vn 0.5601 0.4696 0.6825
vn 0.3002 -0.8810 0.3658
vn 0.6073 0.2890 0.7400
vn 0.1850 -0.9565 0.2254
vn 0.6314 0.0975 0.7693
vn 0.0625 0.9951 0.0761
vn 0.0625 -0.9951 0.0761
vn 0.6314 -0.0975 0.7693
vn 0.1850 0.9565 0.2254
vn 0.2230 -0.8810 0.4173
vn 0.4513 0.2890 0.8443
vn 0.1374 -0.9565 0.2571
vn 0.4691 0.0975 0.8777
vn 0.0464 0.9951 0.0869
vn 0.0464 -0.9951 0.0869
vn 0.4691 -0.0975 0.8777
vn 0.1374 0.9565 0.2571
vn 0.4513 -0.2890 0.8443
vn 0.2230 0.8810 0.4173
vn 0.4162 -0.4696 0.7786
vn 0.2999 0.7715 0.5611
vn 0.3651 -0.6326 0.6831
vn 0.3651 0.6326 0.6831
vn 0.2999 -0.7715 0.5611
vn 0.4162 0.4696 0.7786
vn 0.1374 0.8810 0.4528
vn 0.2563 -0.4696 0.8448
vn 0.1847 0.7715 0.6088
vn 0.2248 -0.6326 0.7412
vn 0.2248 0.6326 0.7412
vn 0.1847 -0.7715 0.6088
vn 0.2563 0.4696 0.8448
vn 0.1374 -0.8810 0.4528
vn 0.2779 0.2890 0.9161
vn 0.0846 -0.9565 0.2790
vn 0.2889 0.0975 0.9524
vn 0.0286 0.9951 0.0942
vn 0.0286 -0.9951 0.0942
vn 0.2889 -0.0975 0.9524
vn 0.0846 0.9565 0.2790
vn 0.2779 -0.2890 0.9161
vn 0.0938 0.2890 0.9527
vn 0.0286 -0.9565 0.2902
vn 0.0975 0.0975 0.9904
vn 0.0097 0.9951 0.0980
vn 0.0097 -0.9951 0.0980
vn 0.0975 -0.0975 0.9904
vn 0.0286 0.9565 0.2902
vn 0.0938 -0.2890 0.9527
vn 0.0464 0.8810 0.4709
vn 0.0865 -0.4696 0.8786
vn 0.0624 0.7715 0.6332
vn 0.0759 -0.6326 0.7708
vn 0.0759 0.6326 0.7708
vn 0.0624 -0.7715 0.6332
vn 0.0865 0.4696 0.8786
vn 0.0464 -0.8810 0.4709
vn -0.0865 -0.4696 0.8786
vn -0.0624 0.7715 0.6332
vn -0.0759 -0.6326 0.7708
vn -0.0759 0.6326 0.7708
vn -0.0624 -0.7715 0.6332
vn -0.0865 0.4696 0.8786
vn -0.0464 -0.8810 0.4709
vn -0.0938 0.2890 0.9527
vn -0.0286 -0.9565 0.2902
vn -0.0976 0.0975 0.9904
vn -0.0097 0.9951 0.0980
vn -0.0097 -0.9951 0.0980
vn -0.0975 -0.0975 0.9904
vn -0.0286 0.9565 0.2902
vn -0.0938 -0.2890 0.9527
vn -0.0464 0.8810 0.4709
vn -0.0846 -0.9565 0.2790
vn -0.2889 0.0975 0.9524
vn -0.0286 0.9951 0.0942
vn -0.0286 -0.9951 0.0942
vn -0.2889 -0.0975 0.9524
vn -0.0846 0.9565 0.2790
vn -0.2779 -0.2890 0.9161
vn -0.1374 0.8810 0.4528
vn -0.2563 -0.4696 0.8448
vn -0.1847 0.7715 0.6088
vn -0.2248 -0.6326 0.7412
vn -0.2248 0.6326 0.7412
vn -0.1847 -0.7715 0.6088
vn -0.2563 0.4696 0.8448
vn -0.1374 -0.8810 0.4528
vn -0.2779 0.2890 0.9161
vn -0.3651 -0.6326 0.6831
vn -0.3651 0.6326 0.6831
vn -0.2999 -0.7715 0.5611
vn -0.4162 0.4696 0.7786
vn -0.2230 -0.8810 0.4173
vn -0.4513 0.2890 0.8443
vn -0.1374 -0.9565 0.2571
vn -0.4691 0.0975 0.8777
vn -0.0464 0.9951 0.0869
vn -0.0464 -0.9951 0.0869
vn -0.4691 -0.0975 0.8777
vn -0.1374 0.9565 0.2571
vn -0.4513 -0.2890 0.8443
vn -0.2230 0.8810 0.4173
vn -0.4162 -0.4696 0.7786
vn -0.2999 0.7715 0.5611
vn -0.0625 0.9951 0.0761
vn -0.0625 -0.9951 0.0761
vn -0.6314 -0.0975 0.7693
vn -0.1850 0.9565 0.2254
vn -0.6073 -0.2890 0.7400
vn -0.3002 0.8810 0.3658
vn -0.5601 -0.4696 0.6825
vn -0.4036 0.7715 0.4918
vn -0.4913 -0.6326 0.5987
vn -0.4913 0.6326 0.5987
vn -0.4036 -0.7715 0.4918
vn -0.5601 0.4696 0.6825
vn -0.3002 -0.8810 0.3658
vn -0.6073 0.2890 0.7400
vn -0.1850 -0.9565 0.2254
vn -0.6314 0.0975 0.7693
vn -0.5987 0.6326 0.4913
vn -0.4918 -0.7715 0.4036
vn -0.6825 0.4696 0.5601
vn -0.3658 -0.8810 0.3002
vn -0.7400 0.2890 0.6073
vn -0.2254 -0.9566 0.1850
vn -0.7693 0.0975 0.6314
vn -0.0761 0.9951 0.0625
vn -0.0761 -0.9951 0.0625
vn -0.7693 -0.0975 0.6314
vn -0.2254 0.9565 0.1850
vn -0.7400 -0.2890 0.6073
vn -0.3658 0.8810 0.3002
vn -0.6825 -0.4696 0.5601
vn -0.4918 0.7715 0.4036
vn -0.5987 -0.6326 0.4913
vn -0.8777 -0.0975 0.4691
vn -0.2571 0.9565 0.1374
vn -0.8443 -0.2890 0.4513
vn -0.4173 0.8810 0.2230
vn -0.7786 -0.4696 0.4162
vn -0.5611 0.7715 0.2999
vn -0.6831 -0.6326 0.3651
vn -0.6831 0.6326 0.3651
vn -0.5611 -0.7715 0.2999
vn -0.7786 0.4696 0.4162
vn -0.4173 -0.8810 0.2231
vn -0.8443 0.2890 0.4513
vn -0.2571 -0.9565 0.1374
vn -0.8777 0.0975 0.4691
vn -0.0869 0.9951 0.0464
vn -0.0869 -0.9951 0.0464
vn -0.6088 -0.7715 0.1847
vn -0.8448 0.4696 0.2563
vn -0.4528 -0.8810 0.1374
vn -0.9161 0.2890 0.2779
vn -0.2790 -0.9565 0.0846
vn -0.9524 0.0975 0.2889
vn -0.0942 0.9951 0.0286
vn -0.0942 -0.9951 0.0286
vn -0.9524 -0.0975 0.2889
vn -0.2790 0.9565 0.0846
vn -0.9161 -0.2890 0.2779
vn -0.4528 0.8810 0.1374
vn -0.8448 -0.4696 0.2563
vn -0.6088 0.7715 0.1847
vn -0.7412 -0.6326 0.2248
vn -0.7412 0.6326 0.2248
vn -0.2902 0.9565 0.0286
vn -0.9527 -0.2890 0.0938
vn -0.4709 0.8810 0.0464
vn -0.8786 -0.4696 0.0865
vn -0.6332 0.7715 0.0624
vn -0.7708 -0.6326 0.0759
vn -0.7708 0.6326 0.0759
vn -0.6332 -0.7715 0.0624
vn -0.8786 0.4696 0.0865
vn -0.4709 -0.8810 0.0464
vn -0.9527 0.2890 0.0938
vn -0.2902 -0.9565 0.0286
vn -0.9904 0.0975 0.0975
vn -0.0980 0.9951 0.0097
vn -0.0980 -0.9951 0.0097
vn -0.9904 -0.0975 0.0976
vn -0.8786 0.4696 -0.0865
vn -0.4709 -0.8810 -0.0464
vn -0.9527 0.2890 -0.0938
vn -0.2902 -0.9565 -0.0286
vn -0.9904 0.0975 -0.0975
vn -0.0980 0.9951 -0.0097
vn -0.0980 -0.9951 -0.0097
vn -0.9904 -0.0975 -0.0976
vn -0.2902 0.9565 -0.0286
vn -0.9527 -0.2890 -0.0938
vn -0.4709 0.8810 -0.0464
vn -0.8786 -0.4696 -0.0865
vn -0.6332 0.7715 -0.0624
vn -0.7708 -0.6326 -0.0759
vn -0.7708 0.6326 -0.0759
vn -0.6332 -0.7715 -0.0624
vn -0.9161 -0.2890 -0.2779
vn -0.4528 0.8810 -0.1374
vn -0.8448 -0.4696 -0.2563
vn -0.6088 0.7715 -0.1847
vn -0.7412 -0.6326 -0.2248
vn -0.7412 0.6326 -0.2248
vn -0.6088 -0.7715 -0.1847
vn -0.8448 0.4696 -0.2563
vn -0.4528 -0.8810 -0.1374
vn -0.9161 0.2890 -0.2779
vn -0.2790 -0.9565 -0.0846
vn -0.9524 0.0975 -0.2889
vn -0.0942 0.9951 -0.0286
vn -0.0942 -0.9951 -0.0286
vn -0.9524 -0.0975 -0.2889
vn -0.2790 0.9565 -0.0846
vn -0.4173 -0.8810 -0.2231
vn -0.8443 0.2890 -0.4513
vn -0.2571 -0.9565 -0.1374
vn -0.8777 0.0975 -0.4691
vn -0.0869 0.9951 -0.0464
vn -0.0869 -0.9951 -0.0464
vn -0.8777 -0.0975 -0.4691
vn -0.2571 0.9565 -0.1374
vn -0.8443 -0.2890 -0.4513
vn -0.4173 0.8810 -0.2231
vn -0.7786 -0.4696 -0.4162
vn -0.5611 0.7715 -0.2999
vn -0.6831 -0.6326 -0.3651
vn -0.6831 0.6326 -0.3651
vn -0.5611 -0.7715 -0.2999
vn -0.7786 0.4696 -0.4162
vn -0.6825 -0.4696 -0.5601
vn -0.4918 0.7715 -0.4036
vn -0.5987 -0.6326 -0.4913
vn -0.5987 0.6326 -0.4913
vn -0.4918 -0.7715 -0.4036
vn -0.6825 0.4696 -0.5601
vn -0.3658 -0.8810 -0.3002
vn -0.7400 0.2890 -0.6073
vn -0.2254 -0.9565 -0.1850
vn -0.7693 0.0975 -0.6314
vn -0.0761 0.9951 -0.0625
vn -0.0761 -0.9951 -0.0625
vn -0.7693 -0.0975 -0.6314
vn -0.2254 0.9565 -0.1850
vn -0.7400 -0.2890 -0.6073
vn -0.3658 0.8810 -0.3002
vn -0.1850 -0.9565 -0.2254
vn -0.6314 0.0975 -0.7693
vn -0.0625 0.9951 -0.0761
vn -0.0625 -0.9951 -0.0761
vn -0.6314 -0.0975 -0.7693
vn -0.1850 0.9565 -0.2254
vn -0.6073 -0.2890 -0.7400
vn -0.3002 0.8810 -0.3658
vn -0.5601 -0.4696 -0.6825
vn -0.4036 0.7715 -0.4918
vn -0.4913 -0.6326 -0.5987
vn -0.4913 0.6326 -0.5987
vn -0.4036 -0.7715 -0.4918
vn -0.5601 0.4696 -0.6825
vn -0.3002 -0.8810 -0.3658
vn -0.6073 0.2890 -0.7400
vn -0.2999 0.7715 -0.5611
vn -0.3651 -0.6326 -0.6831
vn -0.3651 0.6326 -0.6831
vn -0.2999 -0.7715 -0.5611
vn -0.4162 0.4696 -0.7786
vn -0.2230 -0.8810 -0.4173
vn -0.4513 0.2890 -0.8443
vn -0.1374 -0.9565 -0.2571
vn -0.4691 0.0975 -0.8777
vn -0.0464 0.9951 -0.0869
vn -0.0464 -0.9951 -0.0869
vn -0.4691 -0.0975 -0.8777
vn -0.1374 0.9565 -0.2571
vn -0.4513 -0.2890 -0.8443
vn -0.2230 0.8810 -0.4173
vn -0.4162 -0.4696 -0.7786
vn -0.2889 0.0975 -0.9524
vn -0.0286 0.9951 -0.0942
vn -0.0286 -0.9951 -0.0942
vn -0.2889 -0.0975 -0.9524
vn -0.0846 0.9565 -0.2790
vn -0.2779 -0.2890 -0.9161
vn -0.1374 0.8810 -0.4528
vn -0.2563 -0.4696 -0.8448
vn -0.1847 0.7715 -0.6088
vn -0.2248 -0.6326 -0.7412
vn -0.2248 0.6326 -0.7412
vn -0.1847 -0.7715 -0.6088
vn -0.2563 0.4696 -0.8448
vn -0.1374 -0.8810 -0.4528
vn -0.2779 0.2890 -0.9161
vn -0.0846 -0.9565 -0.2790
vn -0.0759 -0.6326 -0.7708
vn -0.0759 0.6326 -0.7708
vn -0.0624 -0.7715 -0.6332
vn -0.0865 0.4696 -0.8786
vn -0.0464 -0.8810 -0.4709
vn -0.0938 0.2890 -0.9527
vn -0.0286 -0.9565 -0.2902
vn -0.0976 0.0975 -0.9904
vn -0.0097 0.9951 -0.0980
vn -0.0097 -0.9951 -0.0980
vn -0.0976 -0.0975 -0.9904
vn -0.0286 0.9565 -0.2902
vn -0.0938 -0.2890 -0.9527
vn -0.0464 0.8810 -0.4709
vn -0.0865 -0.4696 -0.8786
vn -0.0624 0.7715 -0.6332
vn 0.0975 0.0976 -0.9904
vn 0.0975 -0.0975 -0.9904
vn 0.2230 0.8810 -0.4173
vn 0.2231 -0.8810 -0.4173
vn 0.2254 -0.9565 -0.1850
vn 0.4173 0.8810 0.2230
vn 0.4173 -0.8810 0.2231
vn 0.2231 -0.8810 0.4173
vn -0.0975 0.0975 0.9904
vn -0.0976 -0.0975 0.9904
vn -0.2231 -0.8810 0.4173
vn -0.2231 0.8810 0.4173
vn -0.2254 -0.9565 0.1850
vn -0.4173 -0.8810 0.2230
vn -0.9904 0.0975 0.0976
vn -0.9904 -0.0975 0.0975
vn -0.9904 0.0975 -0.0976
vn -0.9904 -0.0975 -0.0975
vt 0.750000 0.750000
vt 0.718750 0.812500
vt 0.718750 0.750000
vt 0.750000 0.312500
vt 0.718750 0.250000
vt 0.750000 0.250000
vt 0.750000 0.687500
vt 0.718750 0.687500
vt 0.718750 0.187500
vt 0.750000 0.187500
vt 0.750000 0.625000
vt 0.718750 0.625000
vt 0.718750 0.125000
vt 0.750000 0.125000
vt 0.750000 0.562500
vt 0.718750 0.562500
vt 0.718750 0.062500
vt 0.750000 0.062500
vt 0.718750 0.500000
vt 0.750000 0.500000
vt 0.750000 0.937500
vt 0.734375 1.000000
vt 0.718750 0.937500
vt 0.734375 0.000000
vt 0.718750 0.437500
vt 0.750000 0.437500
vt 0.750000 0.875000
vt 0.718750 0.875000
vt 0.718750 0.375000
vt 0.750000 0.375000
vt 0.750000 0.812500
vt 0.718750 0.312500
vt 0.687500 0.812500
vt 0.687500 0.312500
vt 0.687500 0.750000
vt 0.687500 0.250000
vt 0.687500 0.687500
vt 0.687500 0.187500
vt 0.687500 0.625000
vt 0.687500 0.125000
vt 0.687500 0.562500
vt 0.687500 0.062500
vt 0.687500 0.500000
vt 0.703125 1.000000
vt 0.687500 0.937500
vt 0.703125 0.000000
vt 0.687500 0.437500
vt 0.687500 0.875000
vt 0.687500 0.375000
vt 0.656250 0.562500
vt 0.656250 0.062500
vt 0.656250 0.500000
vt 0.671875 1.000000
vt 0.656250 0.937500
vt 0.671875 0.000000
vt 0.656250 0.437500
vt 0.656250 0.875000
vt 0.656250 0.375000
vt 0.656250 0.812500
vt 0.656250 0.312500
vt 0.656250 0.750000
vt 0.656250 0.250000
vt 0.656250 0.687500
vt 0.656250 0.187500
vt 0.656250 0.625000
vt 0.656250 0.125000
vt 0.625000 0.375000
vt 0.625000 0.312500
vt 0.625000 0.750000
vt 0.625000 0.250000
vt 0.625000 0.687500
vt 0.625000 0.187500
vt 0.625000 0.625000
vt 0.625000 0.125000
vt 0.625000 0.562500
vt 0.625000 0.062500
vt 0.625000 0.500000
vt 0.640625 1.000000
vt 0.625000 0.937500
vt 0.640625 0.000000
vt 0.625000 0.437500
vt 0.625000 0.875000
vt 0.625000 0.812500
vt 0.593750 0.062500
vt 0.593750 0.562500
vt 0.593750 0.500000
vt 0.609375 1.000000
vt 0.593750 0.937500
vt 0.609375 0.000000
vt 0.593750 0.437500
vt 0.593750 0.875000
vt 0.593750 0.375000
vt 0.593750 0.812500
vt 0.593750 0.312500
vt 0.593750 0.750000
vt 0.593750 0.250000
vt 0.593750 0.687500
vt 0.593750 0.187500
vt 0.593750 0.625000
vt 0.593750 0.125000
vt 0.562500 0.750000
vt 0.562500 0.250000
vt 0.562500 0.687500
vt 0.562500 0.187500
vt 0.562500 0.625000
vt 0.562500 0.125000
vt 0.562500 0.562500
vt 0.562500 0.062500
vt 0.562500 0.500000
vt 0.578125 1.000000
vt 0.562500 0.937500
vt 0.578125 0.000000
vt 0.562500 0.437500
vt 0.562500 0.875000
vt 0.562500 0.375000
vt 0.562500 0.812500
vt 0.562500 0.312500
vt 0.531250 0.562500
vt 0.531250 0.500000
vt 0.546875 1.000000
vt 0.531250 0.937500
vt 0.546875 0.000000
vt 0.531250 0.062500
vt 0.531250 0.437500
vt 0.531250 0.875000
vt 0.531250 0.375000
vt 0.531250 0.812500
vt 0.531250 0.312500
vt 0.531250 0.750000
vt 0.531250 0.250000
vt 0.531250 0.687500
vt 0.531250 0.187500
vt 0.531250 0.625000
vt 0.531250 0.125000
vt 0.500000 0.250000
vt 0.500000 0.750000
vt 0.500000 0.687500
vt 0.500000 0.187500
vt 0.500000 0.625000
vt 0.500000 0.125000
vt 0.500000 0.562500
vt 0.500000 0.062500
vt 0.500000 0.500000
vt 0.515625 1.000000
vt 0.500000 0.937500
vt 0.515625 0.000000
vt 0.500000 0.437500
vt 0.500000 0.875000
vt 0.500000 0.375000
vt 0.500000 0.812500
vt 0.500000 0.312500
vt 0.484375 0.000000
vt 0.468750 0.062500
vt 0.468750 0.437500
vt 0.468750 0.875000
vt 0.468750 0.375000
vt 0.468750 0.812500
vt 0.468750 0.312500
vt 0.468750 0.750000
vt 0.468750 0.250000
vt 0.468750 0.687500
vt 0.468750 0.187500
vt 0.468750 0.625000
vt 0.468750 0.125000
vt 0.468750 0.562500
vt 0.468750 0.500000
vt 0.484375 1.000000
vt 0.468750 0.937500
vt 0.437500 0.250000
vt 0.437500 0.187500
vt 0.437500 0.625000
vt 0.437500 0.125000
vt 0.437500 0.562500
vt 0.437500 0.062500
vt 0.437500 0.500000
vt 0.453125 1.000000
vt 0.437500 0.937500
vt 0.453125 0.000000
vt 0.437500 0.437500
vt 0.437500 0.875000
vt 0.437500 0.375000
vt 0.437500 0.812500
vt 0.437500 0.312500
vt 0.437500 0.750000
vt 0.437500 0.687500
vt 0.406250 0.875000
vt 0.406250 0.375000
vt 0.406250 0.812500
vt 0.406250 0.312500
vt 0.406250 0.750000
vt 0.406250 0.250000
vt 0.406250 0.687500
vt 0.406250 0.187500
vt 0.406250 0.625000
vt 0.406250 0.125000
vt 0.406250 0.562500
vt 0.406250 0.062500
vt 0.406250 0.500000
vt 0.421875 1.000000
vt 0.406250 0.937500
vt 0.421875 0.000000
vt 0.406250 0.437500
vt 0.375000 0.625000
vt 0.375000 0.187500
vt 0.375000 0.125000
vt 0.375000 0.562500
vt 0.375000 0.062500
vt 0.375000 0.500000
vt 0.390625 1.000000
vt 0.375000 0.937500
vt 0.390625 0.000000
vt 0.375000 0.437500
vt 0.375000 0.875000
vt 0.375000 0.375000
vt 0.375000 0.812500
vt 0.375000 0.312500
vt 0.375000 0.750000
vt 0.375000 0.250000
vt 0.375000 0.687500
vt 0.343750 0.375000
vt 0.343750 0.875000
vt 0.343750 0.812500
vt 0.343750 0.312500
vt 0.343750 0.750000
vt 0.343750 0.250000
vt 0.343750 0.687500
vt 0.343750 0.187500
vt 0.343750 0.625000
vt 0.343750 0.125000
vt 0.343750 0.562500
vt 0.343750 0.062500
vt 0.343750 0.500000
vt 0.359375 1.000000
vt 0.343750 0.937500
vt 0.359375 0.000000
vt 0.343750 0.437500
vt 0.312500 0.125000
vt 0.312500 0.625000
vt 0.312500 0.562500
vt 0.312500 0.062500
vt 0.312500 0.500000
vt 0.328125 1.000000
vt 0.312500 0.937500
vt 0.328125 0.000000
vt 0.312500 0.437500
vt 0.312500 0.875000
vt 0.312500 0.375000
vt 0.312500 0.812500
vt 0.312500 0.312500
vt 0.312500 0.750000
vt 0.312500 0.250000
vt 0.312500 0.687500
vt 0.312500 0.187500
vt 0.281250 0.812500
vt 0.281250 0.375000
vt 0.281250 0.312500
vt 0.281250 0.750000
vt 0.281250 0.250000
vt 0.281250 0.687500
vt 0.281250 0.187500
vt 0.281250 0.625000
vt 0.281250 0.125000
vt 0.281250 0.562500
vt 0.281250 0.062500
vt 0.281250 0.500000
vt 0.296875 1.000000
vt 0.281250 0.937500
vt 0.296875 0.000000
vt 0.281250 0.437500
vt 0.281250 0.875000
vt 0.250000 0.625000
vt 0.250000 0.562500
vt 0.250000 0.125000
vt 0.250000 0.062500
vt 0.250000 0.500000
vt 0.265625 1.000000
vt 0.250000 0.937500
vt 0.265625 0.000000
vt 0.250000 0.437500
vt 0.250000 0.875000
vt 0.250000 0.375000
vt 0.250000 0.812500
vt 0.250000 0.312500
vt 0.250000 0.750000
vt 0.250000 0.250000
vt 0.250000 0.687500
vt 0.250000 0.187500
vt 0.218750 0.375000
vt 0.218750 0.312500
vt 0.218750 0.750000
vt 0.218750 0.250000
vt 0.218750 0.687500
vt 0.218750 0.187500
vt 0.218750 0.625000
vt 0.218750 0.125000
vt 0.218750 0.562500
vt 0.218750 0.062500
vt 0.218750 0.500000
vt 0.234375 1.000000
vt 0.218750 0.937500
vt 0.234375 0.000000
vt 0.218750 0.437500
vt 0.218750 0.875000
vt 0.218750 0.812500
vt 0.187500 0.062500
vt 0.187500 0.562500
vt 0.187500 0.500000
vt 0.203125 1.000000
vt 0.187500 0.937500
vt 0.203125 0.000000
vt 0.187500 0.437500
vt 0.187500 0.875000
vt 0.187500 0.375000
vt 0.187500 0.812500
vt 0.187500 0.312500
vt 0.187500 0.750000
vt 0.187500 0.250000
vt 0.187500 0.687500
vt 0.187500 0.187500
vt 0.187500 0.625000
vt 0.187500 0.125000
vt 0.156250 0.250000
vt 0.156250 0.750000
vt 0.156250 0.687500
vt 0.156250 0.187500
vt 0.156250 0.625000
vt 0.156250 0.125000
vt 0.156250 0.562500
vt 0.156250 0.062500
vt 0.156250 0.500000
vt 0.171875 1.000000
vt 0.156250 0.937500
vt 0.171875 0.000000
vt 0.156250 0.437500
vt 0.156250 0.875000
vt 0.156250 0.375000
vt 0.156250 0.812500
vt 0.156250 0.312500
vt 0.140625 1.000000
vt 0.125000 0.937500
vt 0.140625 0.000000
vt 0.125000 0.062500
vt 0.125000 0.437500
vt 0.125000 0.875000
vt 0.125000 0.375000
vt 0.125000 0.812500
vt 0.125000 0.312500
vt 0.125000 0.750000
vt 0.125000 0.250000
vt 0.125000 0.687500
vt 0.125000 0.187500
vt 0.125000 0.625000
vt 0.125000 0.125000
vt 0.125000 0.562500
vt 0.125000 0.500000
vt 0.093750 0.750000
vt 0.093750 0.687500
vt 0.093750 0.250000
vt 0.093750 0.187500
vt 0.093750 0.625000
vt 0.093750 0.125000
vt 0.093750 0.562500
vt 0.093750 0.062500
vt 0.093750 0.500000
vt 0.109375 1.000000
vt 0.093750 0.937500
vt 0.109375 0.000000
vt 0.093750 0.437500
vt 0.093750 0.875000
vt 0.093750 0.375000
vt 0.093750 0.812500
vt 0.093750 0.312500
vt 0.062500 0.437500
vt 0.062500 0.875000
vt 0.062500 0.375000
vt 0.062500 0.812500
vt 0.062500 0.312500
vt 0.062500 0.750000
vt 0.062500 0.250000
vt 0.062500 0.687500
vt 0.062500 0.187500
vt 0.062500 0.625000
vt 0.062500 0.125000
vt 0.062500 0.562500
vt 0.062500 0.062500
vt 0.062500 0.500000
vt 0.078125 1.000000
vt 0.062500 0.937500
vt 0.078125 0.000000
vt 0.031250 0.250000
vt 0.031250 0.187500
vt 0.031250 0.625000
vt 0.031250 0.125000
vt 0.031250 0.562500
vt 0.031250 0.062500
vt 0.031250 0.500000
vt 0.046875 1.000000
vt 0.031250 0.937500
vt 0.046875 0.000000
vt 0.031250 0.437500
vt 0.031250 0.875000
vt 0.031250 0.375000
vt 0.031250 0.812500
vt 0.031250 0.312500
vt 0.031250 0.750000
vt 0.031250 0.687500
vt 0.000000 0.875000
vt 0.000000 0.375000
vt 0.000000 0.812500
vt 0.000000 0.312500
vt 0.000000 0.750000
vt 0.000000 0.250000
vt 0.000000 0.687500
vt 0.000000 0.187500
vt 0.000000 0.625000
vt 0.000000 0.125000
vt 0.000000 0.562500
vt 0.000000 0.062500
vt 0.000000 0.500000
vt 0.015625 1.000000
vt 0.000000 0.937500
vt 0.015625 0.000000
vt 0.000000 0.437500
vt 1.000000 0.687500
vt 0.968750 0.625000
vt 1.000000 0.625000
vt 1.000000 0.187500
vt 0.968750 0.125000
vt 1.000000 0.125000
vt 1.000000 0.562500
vt 0.968750 0.562500
vt 0.968750 0.062500
vt 1.000000 0.062500
vt 1.000000 0.500000
vt 0.968750 0.500000
vt 1.000000 0.937500
vt 0.984375 1.000000
vt 0.968750 0.937500
vt 0.984375 0.000000
vt 0.968750 0.437500
vt 1.000000 0.437500
vt 0.968750 0.875000
vt 1.000000 0.875000
vt 0.968750 0.375000
vt 1.000000 0.375000
vt 1.000000 0.812500
vt 0.968750 0.812500
vt 1.000000 0.312500
vt 0.968750 0.312500
vt 0.968750 0.750000
vt 1.000000 0.750000
vt 0.968750 0.250000
vt 1.000000 0.250000
vt 0.968750 0.687500
vt 0.968750 0.187500
vt 0.937500 0.375000
vt 0.937500 0.875000
vt 0.937500 0.812500
vt 0.937500 0.312500
vt 0.937500 0.750000
vt 0.937500 0.250000
vt 0.937500 0.687500
vt 0.937500 0.187500
vt 0.937500 0.625000
vt 0.937500 0.125000
vt 0.937500 0.562500
vt 0.937500 0.062500
vt 0.937500 0.500000
vt 0.953125 1.000000
vt 0.937500 0.937500
vt 0.953125 0.000000
vt 0.937500 0.437500
vt 0.906250 0.187500
vt 0.906250 0.125000
vt 0.906250 0.625000
vt 0.906250 0.562500
vt 0.906250 0.062500
vt 0.906250 0.500000
vt 0.921875 1.000000
vt 0.906250 0.937500
vt 0.921875 0.000000
vt 0.906250 0.437500
vt 0.906250 0.875000
vt 0.906250 0.375000
vt 0.906250 0.812500
vt 0.906250 0.312500
vt 0.906250 0.750000
vt 0.906250 0.250000
vt 0.906250 0.687500
vt 0.875000 0.375000
vt 0.875000 0.312500
vt 0.875000 0.750000
vt 0.875000 0.250000
vt 0.875000 0.687500
vt 0.875000 0.187500
vt 0.875000 0.625000
vt 0.875000 0.125000
vt 0.875000 0.562500
vt 0.875000 0.062500
vt 0.875000 0.500000
vt 0.890625 1.000000
vt 0.875000 0.937500
vt 0.890625 0.000000
vt 0.875000 0.437500
vt 0.875000 0.875000
vt 0.875000 0.812500
vt 0.843750 0.062500
vt 0.843750 0.562500
vt 0.843750 0.500000
vt 0.859375 1.000000
vt 0.843750 0.937500
vt 0.859375 0.000000
vt 0.843750 0.437500
vt 0.843750 0.875000
vt 0.843750 0.375000
vt 0.843750 0.812500
vt 0.843750 0.312500
vt 0.843750 0.750000
vt 0.843750 0.250000
vt 0.843750 0.687500
vt 0.843750 0.187500
vt 0.843750 0.625000
vt 0.843750 0.125000
vt 0.812500 0.750000
vt 0.812500 0.250000
vt 0.812500 0.687500
vt 0.812500 0.187500
vt 0.812500 0.625000
vt 0.812500 0.125000
vt 0.812500 0.562500
vt 0.812500 0.062500
vt 0.812500 0.500000
vt 0.828125 1.000000
vt 0.812500 0.937500
vt 0.828125 0.000000
vt 0.812500 0.437500
vt 0.812500 0.875000
vt 0.812500 0.375000
vt 0.812500 0.812500
vt 0.812500 0.312500
vt 0.781250 0.562500
vt 0.781250 0.500000
vt 0.796875 1.000000
vt 0.781250 0.937500
vt 0.796875 0.000000
vt 0.781250 0.062500
vt 0.781250 0.437500
vt 0.781250 0.875000
vt 0.781250 0.375000
vt 0.781250 0.812500
vt 0.781250 0.312500
vt 0.781250 0.750000
vt 0.781250 0.250000
vt 0.781250 0.687500
vt 0.781250 0.187500
vt 0.781250 0.625000
vt 0.781250 0.125000
vt 0.765625 1.000000
vt 0.765625 0.000000
s 0
usemtl Material.001
f 476/1/1 11/2/1 12/3/1
f 7/4/2 20/5/2 479/6/2
f 3/7/3 12/3/3 13/8/3
f 479/6/4 21/9/4 480/10/4
f 477/11/5 13/8/5 14/12/5
f 480/10/6 22/13/6 481/14/6
f 4/15/7 14/12/7 15/16/7
f 481/14/8 23/17/8 482/18/8
f 4/15/9 16/19/9 5/20/9
f 474/21/10 1/22/10 9/23/10
f 8/24/11 482/18/11 23/17/11
f 5/20/12 17/25/12 6/26/12
f 475/27/13 9/23/13 10/28/13
f 6/26/14 18/29/14 478/30/14
f 2/31/15 10/28/15 11/2/15
f 478/30/16 19/32/16 7/4/16
f 10/28/17 26/33/17 11/2/17
f 18/29/18 34/34/18 19/32/18
f 11/2/19 27/35/19 12/3/19
f 19/32/20 35/36/20 20/5/20
f 12/3/21 28/37/21 13/8/21
f 21/9/22 35/36/22 36/38/22
f 13/8/23 29/39/23 14/12/23
f 22/13/24 36/38/24 37/40/24
f 15/16/25 29/39/25 30/41/25
f 22/13/26 38/42/26 23/17/26
f 15/16/27 31/43/27 16/19/27
f 9/23/28 1/44/28 24/45/28
f 8/46/29 23/17/29 38/42/29
f 16/19/30 32/47/30 17/25/30
f 9/23/31 25/48/31 10/28/31
f 17/25/32 33/49/32 18/29/32
f 29/39/33 45/50/33 30/41/33
f 37/40/34 53/51/34 38/42/34
f 30/41/35 46/52/35 31/43/35
f 24/45/36 1/53/36 39/54/36
f 8/55/37 38/42/37 53/51/37
f 32/47/38 46/52/38 47/56/38
f 24/45/39 40/57/39 25/48/39
f 32/47/40 48/58/40 33/49/40
f 25/48/41 41/59/41 26/33/41
f 34/34/42 48/58/42 49/60/42
f 26/33/43 42/61/43 27/35/43
f 35/36/44 49/60/44 50/62/44
f 27/35/45 43/63/45 28/37/45
f 36/38/46 50/62/46 51/64/46
f 28/37/47 44/65/47 29/39/47
f 36/38/48 52/66/48 37/40/48
f 49/60/49 63/67/49 64/68/49
f 41/59/50 57/69/50 42/61/50
f 49/60/51 65/70/51 50/62/51
f 42/61/52 58/71/52 43/63/52
f 50/62/53 66/72/53 51/64/53
f 43/63/54 59/73/54 44/65/54
f 51/64/55 67/74/55 52/66/55
f 45/50/56 59/73/56 60/75/56
f 52/66/57 68/76/57 53/51/57
f 46/52/58 60/75/58 61/77/58
f 39/54/59 1/78/59 54/79/59
f 8/80/60 53/51/60 68/76/60
f 46/52/61 62/81/61 47/56/61
f 39/54/62 55/82/62 40/57/62
f 47/56/63 63/67/63 48/58/63
f 40/57/64 56/83/64 41/59/64
f 67/74/65 83/84/65 68/76/65
f 61/77/66 75/85/66 76/86/66
f 54/79/67 1/87/67 69/88/67
f 8/89/68 68/76/68 83/84/68
f 61/77/69 77/90/69 62/81/69
f 54/79/70 70/91/70 55/82/70
f 62/81/71 78/92/71 63/67/71
f 55/82/72 71/93/72 56/83/72
f 64/68/73 78/92/73 79/94/73
f 56/83/74 72/95/74 57/69/74
f 64/68/75 80/96/75 65/70/75
f 58/71/76 72/95/76 73/97/76
f 65/70/77 81/98/77 66/72/77
f 58/71/78 74/99/78 59/73/78
f 67/74/79 81/98/79 82/100/79
f 60/75/80 74/99/80 75/85/80
f 71/93/81 87/101/81 72/95/81
f 79/94/82 95/102/82 80/96/82
f 73/97/83 87/101/83 88/103/83
f 80/96/84 96/104/84 81/98/84
f 73/97/85 89/105/85 74/99/85
f 81/98/86 97/106/86 82/100/86
f 75/85/87 89/105/87 90/107/87
f 83/84/88 97/106/88 98/108/88
f 76/86/89 90/107/89 91/109/89
f 69/88/90 1/110/90 84/111/90
f 8/112/91 83/84/91 98/108/91
f 76/86/92 92/113/92 77/90/92
f 69/88/93 85/114/93 70/91/93
f 77/90/94 93/115/94 78/92/94
f 70/91/95 86/116/95 71/93/95
f 79/94/96 93/115/96 94/117/96
f 91/109/97 105/118/97 106/119/97
f 84/111/98 1/120/98 99/121/98
f 8/122/99 98/108/99 113/123/99
f 91/109/100 107/124/100 92/113/100
f 85/114/101 99/121/101 100/125/101
f 92/113/102 108/126/102 93/115/102
f 85/114/103 101/127/103 86/116/103
f 94/117/104 108/126/104 109/128/104
f 86/116/105 102/129/105 87/101/105
f 94/117/106 110/130/106 95/102/106
f 88/103/107 102/129/107 103/131/107
f 96/104/108 110/130/108 111/132/108
f 88/103/109 104/133/109 89/105/109
f 97/106/110 111/132/110 112/134/110
f 90/107/111 104/133/111 105/118/111
f 97/106/112 113/123/112 98/108/112
f 109/128/113 125/135/113 110/130/113
f 103/131/114 117/136/114 118/137/114
f 111/132/115 125/135/115 126/138/115
f 103/131/116 119/139/116 104/133/116
f 111/132/117 127/140/117 112/134/117
f 105/118/118 119/139/118 120/141/118
f 112/134/119 128/142/119 113/123/119
f 106/119/120 120/141/120 121/143/120
f 99/121/121 1/144/121 114/145/121
f 8/146/122 113/123/122 128/142/122
f 106/119/123 122/147/123 107/124/123
f 100/125/124 114/145/124 115/148/124
f 107/124/125 123/149/125 108/126/125
f 100/125/126 116/150/126 101/127/126
f 109/128/127 123/149/127 124/151/127
f 101/127/128 117/136/128 102/129/128
f 8/152/129 128/142/129 143/153/129
f 121/143/130 137/154/130 122/147/130
f 114/145/131 130/155/131 115/148/131
f 122/147/132 138/156/132 123/149/132
f 115/148/133 131/157/133 116/150/133
f 124/151/134 138/156/134 139/158/134
f 116/150/135 132/159/135 117/136/135
f 124/151/136 140/160/136 125/135/136
f 118/137/137 132/159/137 133/161/137
f 126/138/138 140/160/138 141/162/138
f 118/137/139 134/163/139 119/139/139
f 126/138/140 142/164/140 127/140/140
f 120/141/141 134/163/141 135/165/141
f 127/140/142 143/153/142 128/142/142
f 121/143/143 135/165/143 136/166/143
f 114/145/144 1/167/144 129/168/144
f 141/162/145 155/169/145 156/170/145
f 133/161/146 149/171/146 134/163/146
f 141/162/147 157/172/147 142/164/147
f 135/165/148 149/171/148 150/173/148
f 143/153/149 157/172/149 158/174/149
f 136/166/150 150/173/150 151/175/150
f 129/168/151 1/176/151 144/177/151
f 8/178/152 143/153/152 158/174/152
f 136/166/153 152/179/153 137/154/153
f 129/168/154 145/180/154 130/155/154
f 137/154/155 153/181/155 138/156/155
f 131/157/156 145/180/156 146/182/156
f 139/158/157 153/181/157 154/183/157
f 131/157/158 147/184/158 132/159/158
f 139/158/159 155/169/159 140/160/159
f 133/161/160 147/184/160 148/185/160
f 144/177/161 160/186/161 145/180/161
f 152/179/162 168/187/162 153/181/162
f 146/182/163 160/186/163 161/188/163
f 154/183/164 168/187/164 169/189/164
f 146/182/165 162/190/165 147/184/165
f 154/183/166 170/191/166 155/169/166
f 148/185/167 162/190/167 163/192/167
f 156/170/168 170/191/168 171/193/168
f 148/185/169 164/194/169 149/171/169
f 156/170/170 172/195/170 157/172/170
f 150/173/171 164/194/171 165/196/171
f 157/172/172 173/197/172 158/174/172
f 151/175/173 165/196/173 166/198/173
f 144/177/174 1/199/174 159/200/174
f 8/201/175 158/174/175 173/197/175
f 151/175/176 167/202/176 152/179/176
f 163/192/177 179/203/177 164/194/177
f 172/195/178 186/204/178 187/205/178
f 165/196/179 179/203/179 180/206/179
f 173/197/180 187/205/180 188/207/180
f 166/198/181 180/206/181 181/208/181
f 159/200/182 1/209/182 174/210/182
f 8/211/183 173/197/183 188/207/183
f 166/198/184 182/212/184 167/202/184
f 159/200/185 175/213/185 160/186/185
f 167/202/186 183/214/186 168/187/186
f 160/186/187 176/215/187 161/188/187
f 169/189/188 183/214/188 184/216/188
f 161/188/189 177/217/189 162/190/189
f 169/189/190 185/218/190 170/191/190
f 163/192/191 177/217/191 178/219/191
f 170/191/192 186/204/192 171/193/192
f 182/212/193 198/220/193 183/214/193
f 176/215/194 190/221/194 191/222/194
f 184/216/195 198/220/195 199/223/195
f 176/215/196 192/224/196 177/217/196
f 184/216/197 200/225/197 185/218/197
f 178/219/198 192/224/198 193/226/198
f 186/204/199 200/225/199 201/227/199
f 178/219/200 194/228/200 179/203/200
f 186/204/201 202/229/201 187/205/201
f 180/206/202 194/228/202 195/230/202
f 187/205/203 203/231/203 188/207/203
f 181/208/204 195/230/204 196/232/204
f 174/210/205 1/233/205 189/234/205
f 8/235/206 188/207/206 203/231/206
f 181/208/207 197/236/207 182/212/207
f 175/213/208 189/234/208 190/221/208
f 201/227/209 217/237/209 202/229/209
f 195/230/210 209/238/210 210/239/210
f 202/229/211 218/240/211 203/231/211
f 196/232/212 210/239/212 211/241/212
f 189/234/213 1/242/213 204/243/213
f 8/244/214 203/231/214 218/240/214
f 196/232/215 212/245/215 197/236/215
f 189/234/216 205/246/216 190/221/216
f 197/236/217 213/247/217 198/220/217
f 190/221/218 206/248/218 191/222/218
f 199/223/219 213/247/219 214/249/219
f 191/222/220 207/250/220 192/224/220
f 199/223/221 215/251/221 200/225/221
f 193/226/222 207/250/222 208/252/222
f 201/227/223 215/251/223 216/253/223
f 193/226/224 209/238/224 194/228/224
f 205/246/225 221/254/225 206/248/225
f 214/249/226 228/255/226 229/256/226
f 206/248/227 222/257/227 207/250/227
f 214/249/228 230/258/228 215/251/228
f 208/252/229 222/257/229 223/259/229
f 216/253/230 230/258/230 231/260/230
f 208/252/231 224/261/231 209/238/231
f 216/253/232 232/262/232 217/237/232
f 210/239/233 224/261/233 225/263/233
f 217/237/234 233/264/234 218/240/234
f 211/241/235 225/263/235 226/265/235
f 204/243/236 1/266/236 219/267/236
f 8/268/237 218/240/237 233/264/237
f 211/241/238 227/269/238 212/245/238
f 204/243/239 220/270/239 205/246/239
f 212/245/240 228/255/240 213/247/240
f 225/263/241 239/271/241 240/272/241
f 233/264/242 247/273/242 248/274/242
f 226/265/243 240/272/243 241/275/243
f 219/267/244 1/276/244 234/277/244
f 8/278/245 233/264/245 248/274/245
f 226/265/246 242/279/246 227/269/246
f 219/267/247 235/280/247 220/270/247
f 227/269/248 243/281/248 228/255/248
f 221/254/249 235/280/249 236/282/249
f 229/256/250 243/281/250 244/283/250
f 221/254/251 237/284/251 222/257/251
f 229/256/252 245/285/252 230/258/252
f 223/259/253 237/284/253 238/286/253
f 231/260/254 245/285/254 246/287/254
f 223/259/255 239/271/255 224/261/255
f 231/260/256 247/273/256 232/262/256
f 244/283/257 258/288/257 259/289/257
f 236/282/258 252/290/258 237/284/258
f 244/283/259 260/291/259 245/285/259
f 238/286/260 252/290/260 253/292/260
f 246/287/261 260/291/261 261/293/261
f 238/286/262 254/294/262 239/271/262
f 246/287/263 262/295/263 247/273/263
f 240/272/264 254/294/264 255/296/264
f 247/273/265 263/297/265 248/274/265
f 241/275/266 255/296/266 256/298/266
f 234/277/267 1/299/267 249/300/267
f 8/301/268 248/274/268 263/297/268
f 241/275/269 257/302/269 242/279/269
f 234/277/270 250/303/270 235/280/270
f 242/279/271 258/288/271 243/281/271
f 235/280/272 251/304/272 236/282/272
f 262/295/273 278/305/273 263/297/273
f 256/298/274 270/306/274 271/307/274
f 249/300/275 1/308/275 264/309/275
f 8/310/276 263/297/276 278/305/276
f 256/298/277 272/311/277 257/302/277
f 250/303/278 264/309/278 265/312/278
f 257/302/279 273/313/279 258/288/279
f 250/303/280 266/314/280 251/304/280
f 259/289/281 273/313/281 274/315/281
f 251/304/282 267/316/282 252/290/282
f 259/289/283 275/317/283 260/291/283
f 253/292/284 267/316/284 268/318/284
f 261/293/285 275/317/285 276/319/285
f 253/292/286 269/320/286 254/294/286
f 261/293/287 277/321/287 262/295/287
f 255/296/288 269/320/288 270/306/288
f 274/315/289 290/322/289 275/317/289
f 268/318/290 282/323/290 283/324/290
f 276/319/291 290/322/291 291/325/291
f 268/318/292 284/326/292 269/320/292
f 276/319/293 292/327/293 277/321/293
f 270/306/294 284/326/294 285/328/294
f 278/305/295 292/327/295 293/329/295
f 271/307/296 285/328/296 286/330/296
f 264/309/297 1/331/297 279/332/297
f 8/333/298 278/305/298 293/329/298
f 271/307/299 287/334/299 272/311/299
f 265/312/300 279/332/300 280/335/300
f 272/311/301 288/336/301 273/313/301
f 265/312/302 281/337/302 266/314/302
f 274/315/303 288/336/303 289/338/303
f 266/314/304 282/323/304 267/316/304
f 279/332/305 1/339/305 294/340/305
f 8/341/306 293/329/306 308/342/306
f 286/330/307 302/343/307 287/334/307
f 279/332/308 295/344/308 280/335/308
f 287/334/309 303/345/309 288/336/309
f 280/335/310 296/346/310 281/337/310
f 289/338/311 303/345/311 304/347/311
f 281/337/312 297/348/312 282/323/312
f 289/338/313 305/349/313 290/322/313
f 283/324/314 297/348/314 298/350/314
f 291/325/315 305/349/315 306/351/315
f 283/324/316 299/352/316 284/326/316
f 291/325/317 307/353/317 292/327/317
f 285/328/318 299/352/318 300/354/318
f 293/329/319 307/353/319 308/342/319
f 286/330/320 300/354/320 301/355/320
f 298/350/321 312/356/321 313/357/321
f 306/351/322 320/358/322 321/359/322
f 298/350/323 314/360/323 299/352/323
f 306/351/324 322/361/324 307/353/324
f 300/354/325 314/360/325 315/362/325
f 307/353/326 323/363/326 308/342/326
f 301/355/327 315/362/327 316/364/327
f 294/340/328 1/365/328 309/366/328
f 8/367/329 308/342/329 323/363/329
f 301/355/330 317/368/330 302/343/330
f 294/340/331 310/369/331 295/344/331
f 302/343/332 318/370/332 303/345/332
f 295/344/333 311/371/333 296/346/333
f 304/347/334 318/370/334 319/372/334
f 296/346/335 312/356/335 297/348/335
f 304/347/336 320/358/336 305/349/336
f 316/364/337 332/373/337 317/368/337
f 309/366/338 325/374/338 310/369/338
f 317/368/339 333/375/339 318/370/339
f 310/369/340 326/376/340 311/371/340
f 319/372/341 333/375/341 334/377/341
f 311/371/342 327/378/342 312/356/342
f 319/372/343 335/379/343 320/358/343
f 312/356/344 328/380/344 313/357/344
f 321/359/345 335/379/345 336/381/345
f 313/357/346 329/382/346 314/360/346
f 321/359/347 337/383/347 322/361/347
f 315/362/348 329/382/348 330/384/348
f 322/361/349 338/385/349 323/363/349
f 316/364/350 330/384/350 331/386/350
f 309/366/351 1/387/351 324/388/351
f 8/389/352 323/363/352 338/385/352
f 336/381/353 350/390/353 351/391/353
f 328/380/354 344/392/354 329/382/354
f 336/381/355 352/393/355 337/383/355
f 330/384/356 344/392/356 345/394/356
f 337/383/357 353/395/357 338/385/357
f 331/386/358 345/394/358 346/396/358
f 324/388/359 1/397/359 339/398/359
f 8/399/360 338/385/360 353/395/360
f 331/386/361 347/400/361 332/373/361
f 324/388/362 340/401/362 325/374/362
f 332/373/363 348/402/363 333/375/363
f 325/374/364 341/403/364 326/376/364
f 334/377/365 348/402/365 349/404/365
f 326/376/366 342/405/366 327/378/366
f 334/377/367 350/390/367 335/379/367
f 328/380/368 342/405/368 343/406/368
f 339/398/369 355/407/369 340/401/369
f 347/400/370 363/408/370 348/402/370
f 341/403/371 355/407/371 356/409/371
f 349/404/372 363/408/372 364/410/372
f 341/403/373 357/411/373 342/405/373
f 349/404/374 365/412/374 350/390/374
f 343/406/375 357/411/375 358/413/375
f 351/391/376 365/412/376 366/414/376
f 343/406/377 359/415/377 344/392/377
f 351/391/378 367/416/378 352/393/378
f 345/394/379 359/415/379 360/417/379
f 352/393/380 368/418/380 353/395/380
f 346/396/381 360/417/381 361/419/381
f 339/398/382 1/420/382 354/421/382
f 8/422/383 353/395/383 368/418/383
f 346/396/384 362/423/384 347/400/384
f 358/424/385 374/425/385 359/426/385
f 366/427/386 382/428/386 367/429/386
f 360/430/387 374/425/387 375/431/387
f 367/429/388 383/432/388 368/433/388
f 361/434/389 375/431/389 376/435/389
f 354/436/390 1/437/390 369/438/390
f 8/439/391 368/433/391 383/432/391
f 361/434/392 377/440/392 362/441/392
f 354/436/393 370/442/393 355/443/393
f 362/441/394 378/444/394 363/445/394
f 356/446/395 370/442/395 371/447/395
f 364/448/396 378/444/396 379/449/396
f 356/446/397 372/450/397 357/451/397
f 364/448/398 380/452/398 365/453/398
f 358/424/399 372/450/399 373/454/399
f 366/427/400 380/452/400 381/455/400
f 377/440/401 393/456/401 378/444/401
f 371/447/402 385/457/402 386/458/402
f 379/449/403 393/456/403 394/459/403
f 371/447/404 387/460/404 372/450/404
f 379/449/405 395/461/405 380/452/405
f 373/454/406 387/460/406 388/462/406
f 381/455/407 395/461/407 396/463/407
f 373/454/408 389/464/408 374/425/408
f 381/455/409 397/465/409 382/428/409
f 375/431/410 389/464/410 390/466/410
f 382/428/411 398/467/411 383/432/411
f 376/435/412 390/466/412 391/468/412
f 369/438/413 1/469/413 384/470/413
f 8/471/414 383/432/414 398/467/414
f 376/435/415 392/472/415 377/440/415
f 369/438/416 385/457/416 370/442/416
f 397/465/417 411/473/417 412/474/417
f 390/466/418 404/475/418 405/476/418
f 397/465/419 413/477/419 398/467/419
f 391/468/420 405/476/420 406/478/420
f 384/470/421 1/479/421 399/480/421
f 8/481/422 398/467/422 413/477/422
f 391/468/423 407/482/423 392/472/423
f 385/457/424 399/480/424 400/483/424
f 392/472/425 408/484/425 393/456/425
f 385/457/426 401/485/426 386/458/426
f 394/459/427 408/484/427 409/486/427
f 386/458/428 402/487/428 387/460/428
f 394/459/429 410/488/429 395/461/429
f 388/462/430 402/487/430 403/489/430
f 396/463/431 410/488/431 411/473/431
f 388/462/432 404/475/432 389/464/432
f 409/486/433 423/490/433 424/491/433
f 401/485/434 417/492/434 402/487/434
f 409/486/435 425/493/435 410/488/435
f 403/489/436 417/492/436 418/494/436
f 411/473/437 425/493/437 426/495/437
f 403/489/438 419/496/438 404/475/438
f 411/473/439 427/497/439 412/474/439
f 405/476/440 419/496/440 420/498/440
f 412/474/441 428/499/441 413/477/441
f 406/478/442 420/498/442 421/500/442
f 399/480/443 1/501/443 414/502/443
f 8/503/444 413/477/444 428/499/444
f 406/478/445 422/504/445 407/482/445
f 399/480/446 415/505/446 400/483/446
f 407/482/447 423/490/447 408/484/447
f 401/485/448 415/505/448 416/506/448
f 427/497/449 443/507/449 428/499/449
f 421/500/450 435/508/450 436/509/450
f 414/502/451 1/510/451 429/511/451
f 8/512/452 428/499/452 443/507/452
f 421/500/453 437/513/453 422/504/453
f 414/502/454 430/514/454 415/505/454
f 422/504/455 438/515/455 423/490/455
f 416/506/456 430/514/456 431/516/456
f 424/491/457 438/515/457 439/517/457
f 416/506/458 432/518/458 417/492/458
f 424/491/459 440/519/459 425/493/459
f 418/494/460 432/518/460 433/520/460
f 426/495/461 440/519/461 441/521/461
f 418/494/462 434/522/462 419/496/462
f 426/495/463 442/523/463 427/497/463
f 420/498/464 434/522/464 435/508/464
f 431/516/465 447/524/465 432/518/465
f 439/517/466 455/525/466 440/519/466
f 433/520/467 447/524/467 448/526/467
f 441/521/468 455/525/468 456/527/468
f 433/520/469 449/528/469 434/522/469
f 441/521/470 457/529/470 442/523/470
f 435/508/471 449/528/471 450/530/471
f 442/523/472 458/531/472 443/507/472
f 436/509/473 450/530/473 451/532/473
f 429/511/474 1/533/474 444/534/474
f 8/535/475 443/507/475 458/531/475
f 436/509/476 452/536/476 437/513/476
f 430/514/477 444/534/477 445/537/477
f 437/513/478 453/538/478 438/515/478
f 430/514/479 446/539/479 431/516/479
f 439/517/480 453/538/480 454/540/480
f 451/532/481 465/541/481 466/542/481
f 444/534/482 1/543/482 459/544/482
f 8/545/483 458/531/483 473/546/483
f 451/532/484 467/547/484 452/536/484
f 444/534/485 460/548/485 445/537/485
f 452/536/486 468/549/486 453/538/486
f 446/539/487 460/548/487 461/550/487
f 454/540/488 468/549/488 469/551/488
f 446/539/489 462/552/489 447/524/489
f 454/540/490 470/553/490 455/525/490
f 448/526/491 462/552/491 463/554/491
f 456/527/492 470/553/492 471/555/492
f 448/526/493 464/556/493 449/528/493
f 456/527/494 472/557/494 457/529/494
f 450/530/495 464/556/495 465/541/495
f 458/531/496 472/557/496 473/546/496
f 469/551/497 479/6/497 470/553/497
f 463/554/498 476/1/498 3/7/498
f 471/555/499 479/6/499 480/10/499
f 464/556/500 3/7/500 477/11/500
f 471/555/501 481/14/501 472/557/501
f 465/541/502 477/11/502 4/15/502
f 472/557/503 482/18/503 473/546/503
f 466/542/504 4/15/504 5/20/504
f 459/544/505 1/558/505 474/21/505
f 8/559/506 473/546/506 482/18/506
f 466/542/507 6/26/507 467/547/507
f 460/548/508 474/21/508 475/27/508
f 467/547/509 478/30/509 468/549/509
f 461/550/510 475/27/510 2/31/510
f 468/549/511 7/4/511 469/551/511
f 462/552/512 2/31/512 476/1/512
f 476/1/1 2/31/1 11/2/1
f 7/4/2 19/32/2 20/5/2
f 3/7/3 476/1/3 12/3/3
f 479/6/4 20/5/4 21/9/4
f 477/11/5 3/7/5 13/8/5
f 480/10/6 21/9/6 22/13/6
f 4/15/7 477/11/7 14/12/7
f 481/14/8 22/13/8 23/17/8
f 4/15/513 15/16/513 16/19/513
f 5/20/514 16/19/514 17/25/514
f 475/27/13 474/21/13 9/23/13
f 6/26/14 17/25/14 18/29/14
f 2/31/15 475/27/15 10/28/15
f 478/30/16 18/29/16 19/32/16
f 10/28/17 25/48/17 26/33/17
f 18/29/18 33/49/18 34/34/18
f 11/2/19 26/33/19 27/35/19
f 19/32/20 34/34/20 35/36/20
f 12/3/21 27/35/21 28/37/21
f 21/9/22 20/5/22 35/36/22
f 13/8/23 28/37/23 29/39/23
f 22/13/24 21/9/24 36/38/24
f 15/16/25 14/12/25 29/39/25
f 22/13/26 37/40/26 38/42/26
f 15/16/27 30/41/27 31/43/27
f 16/19/30 31/43/30 32/47/30
f 9/23/31 24/45/31 25/48/31
f 17/25/32 32/47/32 33/49/32
f 29/39/33 44/65/33 45/50/33
f 37/40/34 52/66/34 53/51/34
f 30/41/35 45/50/35 46/52/35
f 32/47/38 31/43/38 46/52/38
f 24/45/39 39/54/39 40/57/39
f 32/47/40 47/56/40 48/58/40
f 25/48/515 40/57/515 41/59/515
f 34/34/42 33/49/42 48/58/42
f 26/33/43 41/59/43 42/61/43
f 35/36/44 34/34/44 49/60/44
f 27/35/45 42/61/45 43/63/45
f 36/38/46 35/36/46 50/62/46
f 28/37/47 43/63/47 44/65/47
f 36/38/516 51/64/516 52/66/516
f 49/60/49 48/58/49 63/67/49
f 41/59/50 56/83/50 57/69/50
f 49/60/51 64/68/51 65/70/51
f 42/61/52 57/69/52 58/71/52
f 50/62/53 65/70/53 66/72/53
f 43/63/54 58/71/54 59/73/54
f 51/64/55 66/72/55 67/74/55
f 45/50/56 44/65/56 59/73/56
f 52/66/57 67/74/57 68/76/57
f 46/52/58 45/50/58 60/75/58
f 46/52/61 61/77/61 62/81/61
f 39/54/62 54/79/62 55/82/62
f 47/56/63 62/81/63 63/67/63
f 40/57/64 55/82/64 56/83/64
f 67/74/517 82/100/517 83/84/517
f 61/77/66 60/75/66 75/85/66
f 61/77/69 76/86/69 77/90/69
f 54/79/70 69/88/70 70/91/70
f 62/81/71 77/90/71 78/92/71
f 55/82/72 70/91/72 71/93/72
f 64/68/73 63/67/73 78/92/73
f 56/83/74 71/93/74 72/95/74
f 64/68/75 79/94/75 80/96/75
f 58/71/76 57/69/76 72/95/76
f 65/70/77 80/96/77 81/98/77
f 58/71/78 73/97/78 74/99/78
f 67/74/79 66/72/79 81/98/79
f 60/75/80 59/73/80 74/99/80
f 71/93/81 86/116/81 87/101/81
f 79/94/82 94/117/82 95/102/82
f 73/97/83 72/95/83 87/101/83
f 80/96/84 95/102/84 96/104/84
f 73/97/85 88/103/85 89/105/85
f 81/98/86 96/104/86 97/106/86
f 75/85/87 74/99/87 89/105/87
f 83/84/88 82/100/88 97/106/88
f 76/86/89 75/85/89 90/107/89
f 76/86/92 91/109/92 92/113/92
f 69/88/93 84/111/93 85/114/93
f 77/90/94 92/113/94 93/115/94
f 70/91/95 85/114/95 86/116/95
f 79/94/96 78/92/96 93/115/96
f 91/109/97 90/107/97 105/118/97
f 91/109/100 106/119/100 107/124/100
f 85/114/101 84/111/101 99/121/101
f 92/113/102 107/124/102 108/126/102
f 85/114/103 100/125/103 101/127/103
f 94/117/104 93/115/104 108/126/104
f 86/116/105 101/127/105 102/129/105
f 94/117/106 109/128/106 110/130/106
f 88/103/107 87/101/107 102/129/107
f 96/104/108 95/102/108 110/130/108
f 88/103/109 103/131/109 104/133/109
f 97/106/110 96/104/110 111/132/110
f 90/107/111 89/105/111 104/133/111
f 97/106/112 112/134/112 113/123/112
f 109/128/113 124/151/113 125/135/113
f 103/131/114 102/129/114 117/136/114
f 111/132/115 110/130/115 125/135/115
f 103/131/116 118/137/116 119/139/116
f 111/132/117 126/138/117 127/140/117
f 105/118/118 104/133/118 119/139/118
f 112/134/119 127/140/119 128/142/119
f 106/119/120 105/118/120 120/141/120
f 106/119/123 121/143/123 122/147/123
f 100/125/124 99/121/124 114/145/124
f 107/124/125 122/147/125 123/149/125
f 100/125/126 115/148/126 116/150/126
f 109/128/127 108/126/127 123/149/127
f 101/127/128 116/150/128 117/136/128
f 121/143/130 136/166/130 137/154/130
f 114/145/131 129/168/131 130/155/131
f 122/147/132 137/154/132 138/156/132
f 115/148/133 130/155/133 131/157/133
f 124/151/134 123/149/134 138/156/134
f 116/150/135 131/157/135 132/159/135
f 124/151/136 139/158/136 140/160/136
f 118/137/137 117/136/137 132/159/137
f 126/138/138 125/135/138 140/160/138
f 118/137/139 133/161/139 134/163/139
f 126/138/140 141/162/140 142/164/140
f 120/141/141 119/139/141 134/163/141
f 127/140/142 142/164/142 143/153/142
f 121/143/143 120/141/143 135/165/143
f 141/162/145 140/160/145 155/169/145
f 133/161/146 148/185/146 149/171/146
f 141/162/147 156/170/147 157/172/147
f 135/165/148 134/163/148 149/171/148
f 143/153/149 142/164/149 157/172/149
f 136/166/150 135/165/150 150/173/150
f 136/166/153 151/175/153 152/179/153
f 129/168/154 144/177/154 145/180/154
f 137/154/155 152/179/155 153/181/155
f 131/157/156 130/155/156 145/180/156
f 139/158/157 138/156/157 153/181/157
f 131/157/158 146/182/158 147/184/158
f 139/158/159 154/183/159 155/169/159
f 133/161/160 132/159/160 147/184/160
f 144/177/161 159/200/161 160/186/161
f 152/179/162 167/202/162 168/187/162
f 146/182/518 145/180/518 160/186/518
f 154/183/164 153/181/164 168/187/164
f 146/182/165 161/188/165 162/190/165
f 154/183/166 169/189/166 170/191/166
f 148/185/167 147/184/167 162/190/167
f 156/170/168 155/169/168 170/191/168
f 148/185/169 163/192/169 164/194/169
f 156/170/519 171/193/519 172/195/519
f 150/173/171 149/171/171 164/194/171
f 157/172/172 172/195/172 173/197/172
f 151/175/173 150/173/173 165/196/173
f 151/175/176 166/198/176 167/202/176
f 163/192/177 178/219/177 179/203/177
f 172/195/178 171/193/178 186/204/178
f 165/196/179 164/194/179 179/203/179
f 173/197/180 172/195/180 187/205/180
f 166/198/181 165/196/181 180/206/181
f 166/198/184 181/208/184 182/212/184
f 159/200/185 174/210/185 175/213/185
f 167/202/186 182/212/186 183/214/186
f 160/186/187 175/213/187 176/215/187
f 169/189/188 168/187/188 183/214/188
f 161/188/189 176/215/189 177/217/189
f 169/189/190 184/216/190 185/218/190
f 163/192/191 162/190/191 177/217/191
f 170/191/192 185/218/192 186/204/192
f 182/212/193 197/236/193 198/220/193
f 176/215/194 175/213/194 190/221/194
f 184/216/195 183/214/195 198/220/195
f 176/215/196 191/222/196 192/224/196
f 184/216/197 199/223/197 200/225/197
f 178/219/198 177/217/198 192/224/198
f 186/204/199 185/218/199 200/225/199
f 178/219/200 193/226/200 194/228/200
f 186/204/201 201/227/201 202/229/201
f 180/206/202 179/203/202 194/228/202
f 187/205/203 202/229/203 203/231/203
f 181/208/204 180/206/204 195/230/204
f 181/208/207 196/232/207 197/236/207
f 175/213/208 174/210/208 189/234/208
f 201/227/520 216/253/520 217/237/520
f 195/230/210 194/228/210 209/238/210
f 202/229/211 217/237/211 218/240/211
f 196/232/212 195/230/212 210/239/212
f 196/232/215 211/241/215 212/245/215
f 189/234/216 204/243/216 205/246/216
f 197/236/217 212/245/217 213/247/217
f 190/221/218 205/246/218 206/248/218
f 199/223/219 198/220/219 213/247/219
f 191/222/220 206/248/220 207/250/220
f 199/223/221 214/249/221 215/251/221
f 193/226/222 192/224/222 207/250/222
f 201/227/223 200/225/223 215/251/223
f 193/226/224 208/252/224 209/238/224
f 205/246/225 220/270/225 221/254/225
f 214/249/226 213/247/226 228/255/226
f 206/248/227 221/254/227 222/257/227
f 214/249/228 229/256/228 230/258/228
f 208/252/229 207/250/229 222/257/229
f 216/253/230 215/251/230 230/258/230
f 208/252/231 223/259/231 224/261/231
f 216/253/232 231/260/232 232/262/232
f 210/239/233 209/238/233 224/261/233
f 217/237/234 232/262/234 233/264/234
f 211/241/235 210/239/235 225/263/235
f 211/241/238 226/265/238 227/269/238
f 204/243/239 219/267/239 220/270/239
f 212/245/240 227/269/240 228/255/240
f 225/263/241 224/261/241 239/271/241
f 233/264/242 232/262/242 247/273/242
f 226/265/243 225/263/243 240/272/243
f 226/265/246 241/275/246 242/279/246
f 219/267/247 234/277/247 235/280/247
f 227/269/248 242/279/248 243/281/248
f 221/254/249 220/270/249 235/280/249
f 229/256/250 228/255/250 243/281/250
f 221/254/251 236/282/251 237/284/251
f 229/256/252 244/283/252 245/285/252
f 223/259/253 222/257/253 237/284/253
f 231/260/254 230/258/254 245/285/254
f 223/259/255 238/286/255 239/271/255
f 231/260/256 246/287/256 247/273/256
f 244/283/257 243/281/257 258/288/257
f 236/282/258 251/304/258 252/290/258
f 244/283/259 259/289/259 260/291/259
f 238/286/260 237/284/260 252/290/260
f 246/287/261 245/285/261 260/291/261
f 238/286/262 253/292/262 254/294/262
f 246/287/263 261/293/263 262/295/263
f 240/272/264 239/271/264 254/294/264
f 247/273/265 262/295/265 263/297/265
f 241/275/521 240/272/521 255/296/521
f 241/275/522 256/298/522 257/302/522
f 234/277/270 249/300/270 250/303/270
f 242/279/271 257/302/271 258/288/271
f 235/280/272 250/303/272 251/304/272
f 262/295/273 277/321/273 278/305/273
f 256/298/274 255/296/274 270/306/274
f 256/298/277 271/307/277 272/311/277
f 250/303/278 249/300/278 264/309/278
f 257/302/279 272/311/279 273/313/279
f 250/303/280 265/312/280 266/314/280
f 259/289/281 258/288/281 273/313/281
f 251/304/282 266/314/282 267/316/282
f 259/289/283 274/315/283 275/317/283
f 253/292/284 252/290/284 267/316/284
f 261/293/285 260/291/285 275/317/285
f 253/292/286 268/318/286 269/320/286
f 261/293/287 276/319/287 277/321/287
f 255/296/288 254/294/288 269/320/288
f 274/315/289 289/338/289 290/322/289
f 268/318/290 267/316/290 282/323/290
f 276/319/291 275/317/291 290/322/291
f 268/318/292 283/324/292 284/326/292
f 276/319/523 291/325/523 292/327/523
f 270/306/294 269/320/294 284/326/294
f 278/305/295 277/321/295 292/327/295
f 271/307/296 270/306/296 285/328/296
f 271/307/299 286/330/299 287/334/299
f 265/312/300 264/309/300 279/332/300
f 272/311/301 287/334/301 288/336/301
f 265/312/524 280/335/524 281/337/524
f 274/315/303 273/313/303 288/336/303
f 266/314/304 281/337/304 282/323/304
f 286/330/307 301/355/307 302/343/307
f 279/332/308 294/340/308 295/344/308
f 287/334/309 302/343/309 303/345/309
f 280/335/310 295/344/310 296/346/310
f 289/338/311 288/336/311 303/345/311
f 281/337/312 296/346/312 297/348/312
f 289/338/313 304/347/313 305/349/313
f 283/324/314 282/323/314 297/348/314
f 291/325/315 290/322/315 305/349/315
f 283/324/316 298/350/316 299/352/316
f 291/325/317 306/351/317 307/353/317
f 285/328/318 284/326/318 299/352/318
f 293/329/319 292/327/319 307/353/319
f 286/330/320 285/328/320 300/354/320
f 298/350/321 297/348/321 312/356/321
f 306/351/322 305/349/322 320/358/322
f 298/350/323 313/357/323 314/360/323
f 306/351/324 321/359/324 322/361/324
f 300/354/325 299/352/325 314/360/325
f 307/353/525 322/361/525 323/363/525
f 301/355/327 300/354/327 315/362/327
f 301/355/330 316/364/330 317/368/330
f 294/340/331 309/366/331 310/369/331
f 302/343/332 317/368/332 318/370/332
f 295/344/333 310/369/333 311/371/333
f 304/347/334 303/345/334 318/370/334
f 296/346/335 311/371/335 312/356/335
f 304/347/336 319/372/336 320/358/336
f 316/364/337 331/386/337 332/373/337
f 309/366/338 324/388/338 325/374/338
f 317/368/339 332/373/339 333/375/339
f 310/369/340 325/374/340 326/376/340
f 319/372/341 318/370/341 333/375/341
f 311/371/342 326/376/342 327/378/342
f 319/372/343 334/377/343 335/379/343
f 312/356/344 327/378/344 328/380/344
f 321/359/345 320/358/345 335/379/345
f 313/357/346 328/380/346 329/382/346
f 321/359/526 336/381/526 337/383/526
f 315/362/348 314/360/348 329/382/348
f 322/361/349 337/383/349 338/385/349
f 316/364/350 315/362/350 330/384/350
f 336/381/353 335/379/353 350/390/353
f 328/380/354 343/406/354 344/392/354
f 336/381/355 351/391/355 352/393/355
f 330/384/356 329/382/356 344/392/356
f 337/383/357 352/393/357 353/395/357
f 331/386/358 330/384/358 345/394/358
f 331/386/361 346/396/361 347/400/361
f 324/388/362 339/398/362 340/401/362
f 332/373/363 347/400/363 348/402/363
f 325/374/364 340/401/364 341/403/364
f 334/377/365 333/375/365 348/402/365
f 326/376/366 341/403/366 342/405/366
f 334/377/367 349/404/367 350/390/367
f 328/380/368 327/378/368 342/405/368
f 339/398/369 354/421/369 355/407/369
f 347/400/370 362/423/370 363/408/370
f 341/403/371 340/401/371 355/407/371
f 349/404/372 348/402/372 363/408/372
f 341/403/373 356/409/373 357/411/373
f 349/404/374 364/410/374 365/412/374
f 343/406/375 342/405/375 357/411/375
f 351/391/376 350/390/376 365/412/376
f 343/406/377 358/413/377 359/415/377
f 351/391/378 366/414/378 367/416/378
f 345/394/379 344/392/379 359/415/379
f 352/393/380 367/416/380 368/418/380
f 346/396/527 345/394/527 360/417/527
f 346/396/528 361/419/528 362/423/528
f 358/424/385 373/454/385 374/425/385
f 366/427/386 381/455/386 382/428/386
f 360/430/387 359/426/387 374/425/387
f 367/429/388 382/428/388 383/432/388
f 361/434/529 360/430/529 375/431/529
f 361/434/530 376/435/530 377/440/530
f 354/436/393 369/438/393 370/442/393
f 362/441/394 377/440/394 378/444/394
f 356/446/395 355/443/395 370/442/395
f 364/448/396 363/445/396 378/444/396
f 356/446/397 371/447/397 372/450/397
f 364/448/398 379/449/398 380/452/398
f 358/424/399 357/451/399 372/450/399
f 366/427/400 365/453/400 380/452/400
f 377/440/401 392/472/401 393/456/401
f 371/447/402 370/442/402 385/457/402
f 379/449/403 378/444/403 393/456/403
f 371/447/404 386/458/404 387/460/404
f 379/449/405 394/459/405 395/461/405
f 373/454/406 372/450/406 387/460/406
f 381/455/407 380/452/407 395/461/407
f 373/454/408 388/462/408 389/464/408
f 381/455/409 396/463/409 397/465/409
f 375/431/410 374/425/410 389/464/410
f 382/428/411 397/465/411 398/467/411
f 376/435/412 375/431/412 390/466/412
f 376/435/415 391/468/415 392/472/415
f 369/438/416 384/470/416 385/457/416
f 397/465/417 396/463/417 411/473/417
f 390/466/418 389/464/418 404/475/418
f 397/465/419 412/474/419 413/477/419
f 391/468/420 390/466/420 405/476/420
f 391/468/423 406/478/423 407/482/423
f 385/457/424 384/470/424 399/480/424
f 392/472/425 407/482/425 408/484/425
f 385/457/426 400/483/426 401/485/426
f 394/459/427 393/456/427 408/484/427
f 386/458/428 401/485/428 402/487/428
f 394/459/429 409/486/429 410/488/429
f 388/462/430 387/460/430 402/487/430
f 396/463/431 395/461/431 410/488/431
f 388/462/432 403/489/432 404/475/432
f 409/486/433 408/484/433 423/490/433
f 401/485/434 416/506/434 417/492/434
f 409/486/435 424/491/435 425/493/435
f 403/489/436 402/487/436 417/492/436
f 411/473/437 410/488/437 425/493/437
f 403/489/438 418/494/438 419/496/438
f 411/473/439 426/495/439 427/497/439
f 405/476/440 404/475/440 419/496/440
f 412/474/441 427/497/441 428/499/441
f 406/478/442 405/476/442 420/498/442
f 406/478/445 421/500/445 422/504/445
f 399/480/446 414/502/446 415/505/446
f 407/482/447 422/504/447 423/490/447
f 401/485/448 400/483/448 415/505/448
f 427/497/449 442/523/449 443/507/449
f 421/500/450 420/498/450 435/508/450
f 421/500/453 436/509/453 437/513/453
f 414/502/454 429/511/454 430/514/454
f 422/504/455 437/513/455 438/515/455
f 416/506/456 415/505/456 430/514/456
f 424/491/457 423/490/457 438/515/457
f 416/506/458 431/516/458 432/518/458
f 424/491/459 439/517/459 440/519/459
f 418/494/460 417/492/460 432/518/460
f 426/495/461 425/493/461 440/519/461
f 418/494/462 433/520/462 434/522/462
f 426/495/463 441/521/463 442/523/463
f 420/498/464 419/496/464 434/522/464
f 431/516/465 446/539/465 447/524/465
f 439/517/466 454/540/466 455/525/466
f 433/520/467 432/518/467 447/524/467
f 441/521/468 440/519/468 455/525/468
f 433/520/469 448/526/469 449/528/469
f 441/521/470 456/527/470 457/529/470
f 435/508/471 434/522/471 449/528/471
f 442/523/472 457/529/472 458/531/472
f 436/509/473 435/508/473 450/530/473
f 436/509/476 451/532/476 452/536/476
f 430/514/477 429/511/477 444/534/477
f 437/513/478 452/536/478 453/538/478
f 430/514/479 445/537/479 446/539/479
f 439/517/480 438/515/480 453/538/480
f 451/532/481 450/530/481 465/541/481
f 451/532/484 466/542/484 467/547/484
f 444/534/485 459/544/485 460/548/485
f 452/536/486 467/547/486 468/549/486
f 446/539/487 445/537/487 460/548/487
f 454/540/488 453/538/488 468/549/488
f 446/539/489 461/550/489 462/552/489
f 454/540/490 469/551/490 470/553/490
f 448/526/491 447/524/491 462/552/491
f 456/527/492 455/525/492 470/553/492
f 448/526/493 463/554/493 464/556/493
f 456/527/494 471/555/494 472/557/494
f 450/530/495 449/528/495 464/556/495
f 458/531/496 457/529/496 472/557/496
f 469/551/497 7/4/497 479/6/497
f 463/554/498 462/552/498 476/1/498
f 471/555/499 470/553/499 479/6/499
f 464/556/500 463/554/500 3/7/500
f 471/555/501 480/10/501 481/14/501
f 465/541/502 464/556/502 477/11/502
f 472/557/503 481/14/503 482/18/503
f 466/542/504 465/541/504 4/15/504
f 466/542/507 5/20/507 6/26/507
f 460/548/508 459/544/508 474/21/508
f 467/547/509 6/26/509 478/30/509
f 461/550/510 460/548/510 475/27/510
f 468/549/511 478/30/511 7/4/511
f 462/552/512 461/550/512 2/31/512
